<svg width="290" height="43" viewBox="0 0 290 43" fill="none" xmlns="http://www.w3.org/2000/svg">
<g clip-path="url(#clip0_750_3)">
<path d="M9.18369 36.4608H44.3345V9.14567H9.18369V36.4608Z" fill="#008A98"/>
<path d="M44.3345 36.4608V36.2103H9.38555V9.3962H44.1325V36.4608H44.3345V36.2103V36.4608H44.5365V8.89497H8.98169V36.7115H44.5365V36.4608H44.3345Z" fill="#254969"/>
<path d="M10.4502 34.6151H43.0679V12.2898H10.4502V34.6151Z" fill="#A2D2D9"/>
<path d="M43.0679 34.6151V34.3644H10.6522V12.5404H42.8659V34.6151H43.0679V34.3644V34.6151H43.2697V12.0391H10.2484V34.8656H43.2697V34.6151H43.0679Z" fill="#254969"/>
<path d="M10.9769 34.0169V17.5161C11.9067 16.9974 13.129 16.5397 14.5456 16.5397C14.5458 16.5397 14.546 16.5397 14.5463 16.5397C15.3573 16.5397 16.2327 16.6893 17.1562 17.0639L17.32 17.1303L17.3607 16.9227C17.678 15.3069 18.2321 14.0066 18.8613 12.9731H42.3186L10.9769 34.0169Z" fill="#CEE6EC"/>
<path d="M5.67682 36.4976C5.70872 38.7467 6.50628 40.5507 7.49204 40.5507H46.0266C47.012 40.5507 47.8099 38.7465 47.8415 36.4976H5.67682Z" fill="#49BBBD"/>
<path d="M5.67681 36.4976L5.47495 36.5019C5.49181 37.6623 5.70356 38.7106 6.05002 39.4891C6.22374 39.878 6.43188 40.2008 6.67386 40.4325C6.91501 40.6634 7.19502 40.8018 7.49217 40.8014H46.0267C46.3236 40.8019 46.6036 40.6634 46.8447 40.4325C47.2073 40.0846 47.4953 39.5339 47.7022 38.857C47.9084 38.1794 48.0312 37.3721 48.0436 36.5019L48.0471 36.2469H5.47147L5.47495 36.5019L5.67681 36.4976V36.7483H47.8415V36.4976L47.6396 36.4933C47.6247 37.582 47.4216 38.5603 47.115 39.2464C46.962 39.5896 46.784 39.8583 46.5981 40.0353C46.4115 40.2127 46.2223 40.2998 46.0264 40.3002H7.49189C7.29602 40.2998 7.1067 40.2127 6.91988 40.0353C6.64084 39.7704 6.38061 39.2962 6.19379 38.6799C6.00628 38.0644 5.88982 37.3101 5.87853 36.4935L5.67653 36.4978L5.67681 36.4976Z" fill="#254969"/>
<path d="M39.7603 38.389C39.7603 38.9384 39.4015 39.3838 38.9589 39.3838C38.5161 39.3838 38.1574 38.9384 38.1574 38.389C38.1574 37.8393 38.5161 37.3943 38.9589 37.3943C39.4015 37.3943 39.7603 37.8393 39.7603 38.389Z" fill="#008A98"/>
<path d="M39.7603 38.389H39.5585C39.5583 38.5952 39.4916 38.7797 39.3828 38.9153C39.2737 39.0503 39.1249 39.1331 38.9589 39.1331C38.7924 39.1331 38.6439 39.0503 38.535 38.9153C38.4262 38.7797 38.3596 38.5952 38.3594 38.389C38.3596 38.1825 38.4262 37.998 38.535 37.8628C38.6439 37.7278 38.7925 37.6451 38.9589 37.645C39.1251 37.6451 39.2737 37.7278 39.3828 37.8628C39.4916 37.9982 39.5583 38.1827 39.5585 38.389H39.9623C39.9622 37.701 39.5131 37.1437 38.9589 37.1437C38.4046 37.1437 37.9556 37.7012 37.9556 38.389C37.9556 39.0768 38.4044 39.6342 38.9589 39.6342C39.5132 39.6342 39.9622 39.0768 39.9623 38.389H39.7603Z" fill="#254969"/>
<path d="M42.9971 38.389C42.9971 38.9384 42.6384 39.3838 42.1955 39.3838C41.7528 39.3838 41.394 38.9384 41.394 38.389C41.394 37.8393 41.7528 37.3943 42.1955 37.3943C42.6384 37.3943 42.9971 37.8393 42.9971 38.389Z" fill="#008A98"/>
<path d="M42.9971 38.389H42.7951C42.7951 38.5954 42.7284 38.7797 42.6196 38.9153C42.5105 39.0503 42.3618 39.1331 42.1955 39.1331C42.0293 39.1331 41.8807 39.0503 41.7716 38.9153C41.6628 38.7797 41.596 38.5952 41.5959 38.389C41.596 38.1825 41.6628 37.998 41.7716 37.8628C41.8807 37.728 42.0294 37.6451 42.1955 37.645C42.362 37.6451 42.5106 37.728 42.6196 37.8628C42.7284 37.998 42.7951 38.1827 42.7951 38.389H43.199C43.199 37.701 42.7498 37.1437 42.1955 37.1437C41.6412 37.1437 41.1922 37.701 41.192 38.389C41.1922 39.0768 41.6412 39.6342 42.1955 39.6342C42.75 39.6342 43.199 39.0768 43.199 38.389H42.9971Z" fill="#254969"/>
<path d="M27.5608 10.7396C27.5608 11.2891 27.2019 11.7345 26.7593 11.7345C26.3166 11.7345 25.9577 11.2891 25.9577 10.7396C25.9577 10.1902 26.3166 9.74494 26.7593 9.74494C27.2019 9.74494 27.5608 10.1902 27.5608 10.7396Z" fill="#A2D2D9"/>
<path d="M27.5607 10.7396H27.3587C27.3587 10.9462 27.292 11.1306 27.1832 11.2659C27.0743 11.401 26.9255 11.4838 26.7593 11.4838C26.5929 11.4838 26.4443 11.401 26.3352 11.2659C26.2264 11.1306 26.1597 10.9461 26.1597 10.7396C26.1597 10.5334 26.2264 10.3487 26.3352 10.2135C26.4443 10.0785 26.5931 9.99564 26.7593 9.99547C26.9256 9.99564 27.0743 10.0785 27.1832 10.2135C27.292 10.3487 27.3587 10.5335 27.3587 10.7396H27.7627C27.7626 10.0517 27.3136 9.49441 26.7593 9.49424C26.2048 9.49441 25.7558 10.0517 25.7557 10.7396C25.7558 11.4278 26.2048 11.985 26.7593 11.985C27.3136 11.985 27.7626 11.4278 27.7627 10.7396H27.5607Z" fill="#254969"/>
<path d="M22.3059 38.2048H31.2124V36.5835H22.3059V38.2048Z" fill="#008A98"/>
<path d="M31.2124 38.2048V37.9541H22.5078V36.8341H31.0104V38.2048H31.2124V37.9541V38.2048H31.4142V36.3327H22.1039V38.4554H31.4142V38.2048H31.2124Z" fill="#254969"/>
<path d="M2.18943 23.8061L1.24699 23.7952L1.09793 16.2994C0.509759 15.0199 0.870017 13.3852 1.90092 12.655L10.6209 6.48026C11.6868 5.72555 12.7641 5.75201 13.1271 6.54112L13.5403 7.44002L12.7583 7.99382L12.3449 7.09492C12.2669 7.00812 11.7467 6.97043 11.0674 7.45126L2.34727 13.626C1.74782 14.0506 1.53843 15.0012 1.8803 15.7454L2.18943 23.806V23.8061Z" fill="#EA5E20"/>
<path d="M2.18943 23.8061L2.19096 23.6082L1.40274 23.599L1.25646 16.2446L1.23654 16.2013C1.05906 15.8151 0.975054 15.3953 0.974915 14.98C0.975194 14.1195 1.33629 13.2826 1.9799 12.827L10.7001 6.65247C11.1975 6.29958 11.6949 6.12875 12.0996 6.12927C12.3138 6.1291 12.5011 6.17647 12.6504 6.26327C12.8002 6.35058 12.9123 6.47421 12.9887 6.63915L13.3227 7.36602L12.8175 7.72392L12.4706 6.96887L12.4512 6.9476C12.4239 6.91787 12.3992 6.903 12.3751 6.89072C12.3041 6.85649 12.2264 6.8449 12.1251 6.84404C11.8642 6.84438 11.461 6.94553 10.9884 7.2794L2.26828 13.454C1.81245 13.7769 1.5564 14.3696 1.55668 14.9779C1.55654 15.2718 1.61644 15.5704 1.74182 15.8433L1.88044 15.7452L1.72106 15.7546L2.0302 23.8153L2.18957 23.8058L2.34894 23.7965L2.038 15.688L2.01905 15.6469C1.92181 15.4351 1.87584 15.2053 1.87584 14.9776C1.87598 14.5055 2.0738 14.0472 2.42667 13.7973L11.1467 7.62278C11.5734 7.32003 11.93 7.23877 12.1254 7.23929C12.1747 7.23911 12.2134 7.24465 12.2364 7.25087L12.2565 7.25744L12.2659 7.22874L12.2534 7.25554L12.2566 7.25761L12.2661 7.22891L12.2535 7.25571L12.2974 7.16114L12.2388 7.24222L12.2535 7.25571L12.2974 7.16114L12.2388 7.24222L12.3453 7.09474L12.2067 7.19295L12.699 8.26371L13.7582 7.51368L13.2662 6.44291C13.1558 6.20206 12.987 6.02069 12.786 5.9045C12.5845 5.7878 12.3515 5.73316 12.1 5.73299C11.6248 5.73368 11.0807 5.9275 10.5422 6.30822L1.82234 12.4828C1.0755 13.0119 0.656172 13.9825 0.656311 14.9795C0.656311 15.4613 0.754247 15.9499 0.95987 16.3969L1.09834 16.2989L0.938834 16.3037L1.0918 23.9908L2.35716 24.0053L2.34908 23.7961L2.18971 23.8054L2.18943 23.8061Z" fill="#254969"/>
<path d="M2.02128 23.584H1.71521L1.43255 15.5232C1.0904 14.7792 1.29993 13.8285 1.89952 13.404L10.6197 7.22926C10.777 7.11791 10.9256 7.0344 11.0624 6.97285C11.0424 7.04149 11.0322 7.11428 11.0323 7.18759C11.0322 7.20765 11.0332 7.2277 11.0346 7.24793C11.0192 7.25831 11.004 7.26885 10.9886 7.27974L2.26842 13.4543C1.81259 13.7773 1.55654 14.37 1.55682 14.9783C1.55668 15.2571 1.61045 15.5398 1.72301 15.8009L2.02142 23.5843L2.02128 23.584Z" fill="#D65221"/>
<path d="M2.04471 23.584H2.0213L1.7229 15.8006C1.61034 15.5395 1.55656 15.2568 1.5567 14.9779C1.55642 14.3696 1.81248 13.7769 2.2683 13.454L10.9885 7.2794C11.0039 7.26851 11.0191 7.25796 11.0344 7.24759C11.0397 7.31432 11.0535 7.38124 11.0765 7.44504C11.0736 7.44711 11.0707 7.44919 11.0675 7.45126L2.34729 13.626C1.74784 14.0506 1.53845 15.0012 1.88032 15.7454L2.04471 23.584Z" fill="#28425B"/>
<path d="M22.4001 9.2935C22.4001 9.2935 18.3321 11.1383 17.2056 16.8756C12.4845 14.9601 8.95564 18.8133 8.95564 18.8133L6.13724 12.6821L19.5816 3.16215L22.4001 9.29333V9.2935Z" fill="#355B74"/>
<path d="M22.4001 9.2935L22.3454 9.10763C22.3341 9.11299 21.3019 9.5819 20.1242 10.7801C18.947 11.9772 17.6236 13.9103 17.0507 16.8288L17.2055 16.8756L17.2551 16.6875C16.2989 16.2995 15.3887 16.1436 14.546 16.1436C12.8502 16.1438 11.4285 16.7728 10.4311 17.4009C9.43305 18.0292 8.85756 18.6569 8.85018 18.6646L8.9555 18.8133L9.09411 18.7153L6.35456 12.756L19.5221 3.43239L22.2616 9.39136L22.4001 9.29333L22.5386 9.19529L19.6411 2.89208L5.91949 12.6081L8.91398 19.1221L9.06096 18.9618L9.06625 18.9563C9.12685 18.8916 9.70708 18.2849 10.6671 17.6967C11.6275 17.1085 12.9658 16.5394 14.5463 16.5395C15.3573 16.5395 16.2327 16.6891 17.1562 17.0638L17.32 17.1302L17.3607 16.9225C17.9144 14.1037 19.188 12.2456 20.3266 11.0859C20.8956 10.5067 21.4305 10.1035 21.8217 9.84626C22.0173 9.71745 22.1772 9.62495 22.2873 9.56512C22.3424 9.53539 22.3849 9.51343 22.4135 9.49942C22.4278 9.49233 22.4384 9.48732 22.4455 9.48386L22.455 9.47954L22.6323 9.39897L22.5387 9.19547L22.4003 9.2935H22.4001Z" fill="#254969"/>
<path d="M9.00103 18.5125L6.78445 13.691L13.5548 8.89704L17.0969 16.6025C17.0954 16.6096 17.094 16.6166 17.0926 16.6237C16.1955 16.2823 15.3411 16.1436 14.5463 16.1436C12.8505 16.1438 11.4288 16.7728 10.4313 17.4009C9.72726 17.8441 9.2334 18.287 9.00117 18.5123L9.00103 18.5125Z" fill="#2F5065"/>
<path d="M8.95563 18.8135L6.646 13.7892L6.78447 13.691L9.00105 18.5125C9.23328 18.2872 9.72714 17.8442 10.4312 17.4011C11.4287 16.7729 12.8505 16.1439 14.5462 16.1438C15.3409 16.1438 16.1955 16.2824 17.0925 16.6239C17.094 16.6168 17.0954 16.6097 17.0968 16.6026L17.2109 16.8504L17.2055 16.8758C16.2656 16.4944 15.373 16.3417 14.5462 16.3417C11.2193 16.3417 8.95549 18.8135 8.95549 18.8135H8.95563Z" fill="#23415B"/>
<path d="M0.858598 25.7789C0.852607 26.5857 0.204254 29.794 0.204254 29.794L2.69555 29.8225C2.69555 29.8225 2.36343 27.3748 2.375 25.7962C2.38071 25.029 2.0458 24.4033 1.62704 24.3983C1.20827 24.3936 0.864309 25.0114 0.858598 25.7787V25.7789Z" fill="#EA5E20"/>
<path d="M0.8586 25.7789L0.698949 25.7772C0.698253 25.9508 0.658131 26.3021 0.596974 26.7107C0.505447 27.3262 0.368365 28.0864 0.254408 28.6912C0.19743 28.9938 0.146164 29.2575 0.109107 29.4458C0.0721896 29.6339 0.0494819 29.7456 0.0494819 29.7459L0.000305176 29.9895L2.88446 30.0226L2.8527 29.7897C2.8527 29.7897 2.84796 29.7535 2.83918 29.6864C2.77803 29.2177 2.53367 27.2354 2.53423 25.879C2.53423 25.8515 2.53423 25.8249 2.53451 25.7985V25.7981V25.7768C2.53423 25.3617 2.44479 24.9827 2.28918 24.6947C2.21117 24.551 2.11602 24.4294 2.00443 24.3419C1.89326 24.2545 1.7644 24.2021 1.62871 24.2007L1.6223 24.2005C1.48633 24.2003 1.35664 24.2517 1.24421 24.3383C1.07509 24.4689 0.941908 24.675 0.848569 24.9225C0.75537 25.1707 0.701596 25.4632 0.699228 25.7772L0.858878 25.7789L1.01839 25.781C1.02062 25.4348 1.10058 25.1254 1.21802 24.9142C1.27653 24.8086 1.34368 24.7277 1.41222 24.6751C1.48104 24.6224 1.55028 24.5968 1.62244 24.5966H1.62578C1.69781 24.5975 1.76635 24.6239 1.83419 24.6769C1.93561 24.7555 2.03299 24.899 2.10292 25.0906C2.173 25.282 2.21591 25.5194 2.21577 25.7767V25.7946V25.7943C2.21549 25.8227 2.21549 25.8507 2.21549 25.879C2.21549 26.6847 2.29657 27.6749 2.37709 28.468C2.45775 29.2604 2.53813 29.8536 2.53841 29.8554L2.69569 29.8227L2.69723 29.6245L0.205928 29.5962L0.204396 29.7941L0.359031 29.8424C0.359309 29.8414 0.521467 29.0381 0.684879 28.1324C0.766655 27.6796 0.84843 27.2008 0.910563 26.7828C0.972695 26.3628 1.01574 26.0106 1.01811 25.781L0.8586 25.7789Z" fill="#254969"/>
<path d="M2.50805 29.6225L2.01225 29.6171C1.93451 29.0031 1.70785 27.0974 1.7176 25.7889C1.72039 25.4236 1.64558 25.0909 1.52145 24.8421L1.98397 24.8475C2.02813 24.916 2.06853 24.9976 2.10266 25.0908C2.17273 25.2822 2.21564 25.5196 2.2155 25.7768V25.7948V25.7945C2.21522 25.8228 2.21522 25.8508 2.21522 25.8792C2.21522 26.6849 2.2963 27.6751 2.37682 28.4682C2.42697 28.962 2.47727 29.3787 2.50805 29.6226V29.6225Z" fill="#D65221"/>
<path d="M2.69556 29.8227L2.03829 29.8152C2.03829 29.8152 2.02854 29.7437 2.01238 29.6169L2.50819 29.6223C2.4774 29.3783 2.42711 28.9616 2.37696 28.4678C2.2963 27.6748 2.21536 26.6846 2.21536 25.8788C2.21536 25.8505 2.21536 25.8225 2.21564 25.7941V25.7945V25.7765C2.21577 25.5192 2.17301 25.2818 2.10279 25.0904C2.06866 24.9971 2.02826 24.9156 1.9841 24.8472L2.17983 24.8494C2.30354 25.0986 2.37779 25.4316 2.37501 25.7962C2.36344 27.3746 2.69556 29.8225 2.69556 29.8225V29.8227Z" fill="#28425B"/>
<path d="M2.34338 24.2306C2.34171 24.4642 2.26997 24.6526 2.18331 24.6518L1.24088 24.6405C1.15409 24.6397 1.08513 24.4498 1.08708 24.2161C1.08875 23.9828 1.16035 23.7942 1.24714 23.7951L2.18958 23.806C2.27637 23.807 2.34519 23.9972 2.34338 24.2306Z" fill="#EA5E20"/>
<path d="M2.34337 24.2306L2.18386 24.229C2.18358 24.3203 2.16756 24.4023 2.15112 24.4441L2.14081 24.4671L2.13747 24.4725L2.16533 24.5059L2.14847 24.4635L2.13761 24.4725L2.16547 24.5059L2.14861 24.4635L2.18441 24.5525V24.4535C2.17007 24.4533 2.15641 24.4583 2.14861 24.4635L2.18441 24.5525V24.4535H2.18191L2.18372 24.6516L2.18525 24.4535L1.24281 24.4426L1.24212 24.525L1.28906 24.4618C1.28753 24.459 1.26872 24.4422 1.24267 24.4426L1.24212 24.525L1.28906 24.4618L1.28405 24.4685L1.28962 24.4623L1.28906 24.4618L1.28405 24.4685L1.28962 24.4623C1.28781 24.4612 1.27332 24.4336 1.26385 24.39C1.25382 24.347 1.24685 24.2885 1.24699 24.2254V24.2178C1.24727 24.1262 1.26329 24.0444 1.27973 24.0024L1.29004 23.9794L1.29338 23.974L1.26538 23.9405L1.28238 23.9832L1.29324 23.974L1.26524 23.9405L1.28224 23.9832L1.24643 23.8943V23.9932C1.26064 23.9934 1.2743 23.9882 1.28224 23.9832L1.24643 23.8943V23.9932H1.24685L1.24657 23.8124L1.24128 23.993L1.24685 23.9932L1.24657 23.8124L1.24128 23.993L1.24351 23.9932L2.18818 24.0039L2.18873 23.9213L2.14165 23.9847C2.14318 23.9873 2.16185 24.0041 2.18818 24.0039L2.18873 23.9213L2.14165 23.9847L2.14652 23.978L2.14109 23.9839L2.14165 23.9847L2.14652 23.978L2.14109 23.9839C2.1429 23.9853 2.15739 24.0131 2.167 24.0567C2.17703 24.1001 2.184 24.1583 2.18386 24.222V24.2306V24.229L2.34337 24.2306H2.50288V24.222C2.50246 24.0826 2.48365 23.9557 2.44367 23.8459C2.42319 23.7911 2.39728 23.7392 2.35786 23.6937C2.31955 23.649 2.2602 23.6085 2.1911 23.6082L1.24866 23.5974L1.24713 23.7952L1.25312 23.5974H1.24643C1.17664 23.5969 1.11687 23.637 1.07801 23.6818C1.0188 23.7508 0.987455 23.8317 0.963633 23.9206C0.940786 24.0098 0.928526 24.1087 0.927691 24.2145V24.213L0.927551 24.2258C0.927969 24.3649 0.946916 24.4919 0.987037 24.6015C1.00752 24.6563 1.03343 24.7078 1.07285 24.7536C1.1113 24.7982 1.17079 24.8385 1.23961 24.8389L2.18344 24.8498H2.18511L2.18358 24.6831L2.1833 24.8498H2.18511L2.18358 24.6831L2.1833 24.8498H2.18414C2.25379 24.8501 2.31356 24.8102 2.35242 24.7652C2.41163 24.6966 2.44311 24.6156 2.4668 24.5268C2.48964 24.4376 2.50204 24.3383 2.50274 24.2325V24.2306H2.34323H2.34337Z" fill="#254969"/>
<path d="M2.14318 24.4535L1.81009 24.4495C1.84464 24.4035 1.86804 24.3203 1.86874 24.2254C1.86944 24.1303 1.84729 24.0465 1.81329 23.9998L2.14652 24.0038C2.14973 24.0083 2.15293 24.0133 2.15614 24.0185C2.15976 24.0293 2.16366 24.0421 2.16686 24.0568C2.17689 24.1002 2.18386 24.1585 2.18372 24.2221V24.2292C2.18344 24.3165 2.16868 24.3954 2.15321 24.4384C2.15001 24.4438 2.14666 24.449 2.14318 24.4535Z" fill="#C64D20"/>
<path d="M2.08091 24.4917C2.08063 24.4917 2.08049 24.4917 2.08035 24.4917L1.74698 24.4877C1.74726 24.4877 1.74754 24.4877 1.74768 24.4877C1.77052 24.4877 1.79184 24.4739 1.81009 24.4495L2.14318 24.4535C2.12493 24.4778 2.10361 24.4917 2.08091 24.4917ZM2.15335 24.4384C2.16895 24.3952 2.18358 24.3165 2.18386 24.2292V24.2221C2.184 24.1587 2.17703 24.1002 2.167 24.0568C2.1638 24.0421 2.1599 24.0292 2.15627 24.0185C2.18469 24.067 2.20266 24.1435 2.20197 24.2292C2.20141 24.3148 2.18233 24.3905 2.15335 24.4384ZM2.14666 24.0038L1.81343 23.9998C1.79546 23.9749 1.77401 23.9604 1.75116 23.9602L2.08425 23.9642C2.10724 23.9643 2.12855 23.9789 2.14666 24.0038Z" fill="#273E55"/>
<path d="M23.0007 0.741392C23.238 1.25784 23.0933 1.91538 22.677 2.20982L3.61151 15.7101C3.19539 16.0048 2.66573 15.8249 2.42834 15.3085C2.19095 14.7922 2.3357 14.1347 2.75196 13.8399L21.8176 0.339748C22.2336 0.0451276 22.7633 0.225116 23.0007 0.741392Z" fill="#355B74"/>
<path d="M23.0007 0.741392L22.8621 0.839599C22.9254 0.977572 22.9552 1.12644 22.9554 1.27392C22.9551 1.57961 22.8272 1.87596 22.5982 2.03796L3.53252 15.5383C3.42149 15.6166 3.30155 15.6536 3.18271 15.6538C2.93627 15.6534 2.69763 15.4949 2.5671 15.2105C2.50371 15.0725 2.47376 14.9236 2.47376 14.7763C2.47404 14.4704 2.60179 14.1743 2.83095 14.0121L21.8966 0.511955C22.0078 0.433459 22.1276 0.396458 22.2464 0.396458C22.4927 0.396631 22.7315 0.55518 22.8621 0.839426L23.0007 0.741392L23.1391 0.643358C22.95 0.231686 22.6029 7.66304e-07 22.2466 0.000173665C22.0741 0.000173665 21.8986 0.0546369 21.7386 0.167886L2.67297 13.668C2.34128 13.9032 2.1546 14.3337 2.15488 14.776C2.15474 14.99 2.19848 15.2077 2.28987 15.4064C2.47919 15.8182 2.82622 16.0499 3.18257 16.0494C3.35504 16.0494 3.53043 15.9952 3.6905 15.8818L22.7562 2.38169C23.0879 2.14654 23.2745 1.7162 23.2743 1.27392C23.2744 1.05987 23.2307 0.842019 23.1391 0.643358L23.0007 0.741392Z" fill="#254969"/>
<path d="M3.18259 15.6536C2.93935 15.6532 2.70364 15.4987 2.57199 15.221L22.8671 0.850491C22.9271 0.985179 22.9553 1.13024 22.9553 1.27375C22.955 1.57943 22.8271 1.87578 22.5981 2.03779L3.5324 15.5381C3.42137 15.6164 3.30142 15.6534 3.18259 15.6536Z" fill="#2F5065"/>
<path d="M3.183 15.8516C2.88488 15.8516 2.59511 15.6605 2.43393 15.3192L2.57213 15.2212C2.70377 15.4989 2.93949 15.6534 3.18273 15.6538C3.3017 15.6536 3.4215 15.6168 3.53254 15.5383L22.5982 2.03796C22.8272 1.87596 22.9551 1.57961 22.9554 1.27392C22.9553 1.13042 22.9271 0.985526 22.8672 0.850665L23.0054 0.752804C23.2357 1.26735 23.0904 1.91728 22.6772 2.20965L3.61166 15.71C3.47611 15.8059 3.32858 15.8516 3.18314 15.8516H3.183Z" fill="#23415B"/>
<path d="M13.6717 5.67904C13.7676 5.88739 13.7091 6.15313 13.5411 6.27209L11.7157 7.56468C11.5477 7.68346 11.3335 7.61085 11.2377 7.4025C11.142 7.19416 11.2005 6.92841 11.3685 6.80946L13.1938 5.51687C13.3619 5.39791 13.5759 5.47036 13.6717 5.67904Z" fill="#355B74"/>
<path d="M13.6717 5.67905L13.5331 5.77708C13.5504 5.8146 13.5582 5.85419 13.5583 5.89396C13.5581 5.97678 13.5238 6.05631 13.4619 6.10023L11.6367 7.39282C11.6064 7.41409 11.5745 7.42394 11.5424 7.42412C11.4754 7.42377 11.4114 7.38124 11.3762 7.30464C11.359 7.26712 11.3511 7.22753 11.3511 7.18759C11.3512 7.10477 11.3855 7.02524 11.4474 6.98149L13.2727 5.6889C13.3031 5.66746 13.3349 5.65778 13.3671 5.65778C13.4338 5.65778 13.4979 5.70031 13.5331 5.77708L13.6717 5.67905L13.8103 5.58084C13.7163 5.37664 13.5438 5.26132 13.3672 5.26149C13.2817 5.26149 13.1942 5.28881 13.1149 5.345L11.2895 6.63777C11.1249 6.7543 11.0321 6.96818 11.0323 7.18742C11.0322 7.29375 11.0541 7.40216 11.0994 7.50054C11.1933 7.70473 11.3657 7.81988 11.5425 7.81971C11.628 7.81971 11.7155 7.79256 11.7948 7.73637L13.62 6.44378C13.7846 6.32707 13.8776 6.11337 13.8774 5.89379C13.8774 5.78763 13.8555 5.67905 13.8103 5.58084L13.6717 5.67905Z" fill="#254969"/>
<path d="M11.5423 7.42394C11.4925 7.4236 11.444 7.39991 11.4081 7.35582L13.5527 5.83725C13.5564 5.85592 13.5583 5.87477 13.5583 5.89378C13.558 5.9766 13.5238 6.05614 13.4619 6.10005L11.6367 7.39265C11.6064 7.41391 11.5745 7.42377 11.5423 7.42394Z" fill="#2F5065"/>
<path d="M11.5436 7.62139C11.4384 7.62139 11.3359 7.56209 11.2679 7.45524L11.4081 7.35582C11.444 7.39991 11.4925 7.4236 11.5424 7.42394C11.5744 7.42377 11.6063 7.41391 11.6367 7.39265L13.4619 6.10005C13.5239 6.05614 13.558 5.9766 13.5583 5.89379C13.5583 5.87477 13.5564 5.85592 13.5528 5.83725L13.693 5.73818C13.7548 5.93545 13.6937 6.16385 13.541 6.27192L11.7157 7.56451C11.6612 7.60289 11.602 7.62122 11.5436 7.62122V7.62139Z" fill="#23415B"/>
</g>
<path d="M86.9766 14.2871L83.627 17.4829C81.3483 15.0789 78.7848 13.877 75.9365 13.877C73.5326 13.877 71.5046 14.6973 69.8525 16.3379C68.2119 17.9785 67.3916 20.0008 67.3916 22.4048C67.3916 24.0796 67.7562 25.5664 68.4854 26.8652C69.2145 28.1641 70.2456 29.1838 71.5786 29.9243C72.9116 30.6649 74.3927 31.0352 76.022 31.0352C77.4119 31.0352 78.6823 30.7788 79.833 30.2661C80.9837 29.742 82.2484 28.7964 83.627 27.4292L86.874 30.813C85.0169 32.6245 83.2624 33.8835 81.6104 34.5898C79.9583 35.2848 78.0728 35.6323 75.9536 35.6323C72.0457 35.6323 68.8442 34.3962 66.3491 31.9238C63.8654 29.4401 62.6235 26.2614 62.6235 22.3877C62.6235 19.8812 63.1875 17.6538 64.3154 15.7056C65.4548 13.7573 67.0783 12.1908 69.186 11.0059C71.3052 9.82096 73.5838 9.22852 76.022 9.22852C78.0955 9.22852 80.0894 9.66715 82.0034 10.5444C83.9289 11.4217 85.5866 12.6693 86.9766 14.2871ZM99.4009 15.9277C101.155 15.9277 102.802 16.3664 104.34 17.2437C105.889 18.1209 107.097 19.3115 107.963 20.8154C108.829 22.3193 109.262 23.9429 109.262 25.686C109.262 27.4406 108.823 29.0812 107.946 30.6079C107.08 32.1346 105.895 33.3309 104.391 34.1968C102.887 35.0513 101.229 35.4785 99.418 35.4785C96.752 35.4785 94.4733 34.5329 92.582 32.6416C90.7021 30.7389 89.7622 28.4318 89.7622 25.7202C89.7622 22.8149 90.8275 20.3939 92.958 18.457C94.8265 16.7708 96.9741 15.9277 99.4009 15.9277ZM99.4692 20.3198C98.0223 20.3198 96.8146 20.8268 95.8462 21.8408C94.8892 22.8434 94.4106 24.1309 94.4106 25.7031C94.4106 27.321 94.8835 28.6312 95.8291 29.6338C96.7861 30.6364 97.9938 31.1377 99.4521 31.1377C100.91 31.1377 102.124 30.6307 103.092 29.6167C104.061 28.6027 104.545 27.2982 104.545 25.7031C104.545 24.1081 104.066 22.8149 103.109 21.8237C102.164 20.8211 100.95 20.3198 99.4692 20.3198ZM112.594 9.22852H117.26V35H112.594V9.22852ZM121.002 9.22852H125.668V35H121.002V9.22852ZM148.534 27.0532H133.546C133.763 28.3748 134.338 29.4287 135.272 30.2148C136.218 30.9896 137.42 31.377 138.878 31.377C140.622 31.377 142.12 30.7674 143.373 29.5483L147.304 31.394C146.324 32.784 145.15 33.8151 143.783 34.4873C142.416 35.1481 140.792 35.4785 138.913 35.4785C135.996 35.4785 133.62 34.5614 131.786 32.7271C129.952 30.8813 129.035 28.5742 129.035 25.8057C129.035 22.9688 129.946 20.616 131.769 18.7476C133.603 16.8677 135.899 15.9277 138.656 15.9277C141.584 15.9277 143.965 16.8677 145.8 18.7476C147.634 20.616 148.551 23.0884 148.551 26.1646L148.534 27.0532ZM143.852 23.3789C143.544 22.3421 142.934 21.499 142.023 20.8496C141.123 20.2002 140.075 19.8755 138.878 19.8755C137.58 19.8755 136.44 20.2401 135.46 20.9692C134.845 21.425 134.276 22.2282 133.751 23.3789H143.852ZM166.068 16.4062H170.717V32.334C170.717 35.4785 170.084 37.7913 168.82 39.2725C167.122 41.2777 164.564 42.2803 161.146 42.2803C159.324 42.2803 157.791 42.0524 156.549 41.5967C155.307 41.141 154.259 40.4688 153.405 39.5801C152.55 38.7028 151.918 37.6318 151.508 36.3672H156.652C157.108 36.8913 157.694 37.2843 158.412 37.5464C159.13 37.8198 159.979 37.9565 160.958 37.9565C162.212 37.9565 163.22 37.7629 163.983 37.3755C164.747 36.9881 165.282 36.4868 165.59 35.8716C165.909 35.2563 166.068 34.1968 166.068 32.6929C165.248 33.5132 164.388 34.1056 163.488 34.4702C162.588 34.8234 161.568 35 160.429 35C157.934 35 155.826 34.0999 154.105 32.2998C152.385 30.4997 151.525 28.221 151.525 25.4639C151.525 22.513 152.436 20.1432 154.259 18.3545C155.911 16.7367 157.882 15.9277 160.172 15.9277C161.243 15.9277 162.252 16.1271 163.197 16.5259C164.154 16.9132 165.111 17.557 166.068 18.457V16.4062ZM161.232 20.2856C159.762 20.2856 158.549 20.7812 157.592 21.7725C156.635 22.7523 156.156 23.9884 156.156 25.481C156.156 27.0304 156.646 28.3008 157.626 29.292C158.606 30.2832 159.836 30.7788 161.317 30.7788C162.764 30.7788 163.955 30.2946 164.889 29.3262C165.835 28.3577 166.308 27.0874 166.308 25.5151C166.308 23.9657 165.835 22.7067 164.889 21.7383C163.944 20.7699 162.724 20.2856 161.232 20.2856ZM194.062 27.0532H179.074C179.29 28.3748 179.866 29.4287 180.8 30.2148C181.745 30.9896 182.947 31.377 184.406 31.377C186.149 31.377 187.647 30.7674 188.9 29.5483L192.831 31.394C191.851 32.784 190.678 33.8151 189.311 34.4873C187.943 35.1481 186.32 35.4785 184.44 35.4785C181.523 35.4785 179.148 34.5614 177.313 32.7271C175.479 30.8813 174.562 28.5742 174.562 25.8057C174.562 22.9688 175.473 20.616 177.296 18.7476C179.131 16.8677 181.426 15.9277 184.184 15.9277C187.112 15.9277 189.493 16.8677 191.327 18.7476C193.161 20.616 194.079 23.0884 194.079 26.1646L194.062 27.0532ZM189.379 23.3789C189.071 22.3421 188.462 21.499 187.55 20.8496C186.65 20.2002 185.602 19.8755 184.406 19.8755C183.107 19.8755 181.968 20.2401 180.988 20.9692C180.373 21.425 179.803 22.2282 179.279 23.3789H189.379Z" fill="white"/>
<path d="M209.494 9.86084H211.972L210.622 20.0806H223.49L224.857 9.86084H227.301L224.003 35H221.542L223.2 22.4561H210.263L208.622 35H206.127L209.494 9.86084ZM232.445 16.4062H234.838L233.761 24.1821C233.465 26.381 233.317 27.7938 233.317 28.4204C233.317 29.8446 233.79 31.0067 234.735 31.9067C235.692 32.8068 236.951 33.2568 238.512 33.2568C239.811 33.2568 240.939 32.915 241.896 32.2314C242.853 31.5479 243.537 30.6535 243.947 29.5483C244.152 28.9901 244.397 27.7083 244.682 25.7031L246.015 16.4062H248.356L247.399 23.4473C246.943 26.8083 246.459 29.2008 245.946 30.625C245.434 32.0378 244.516 33.1999 243.195 34.1113C241.885 35.0228 240.284 35.4785 238.393 35.4785C236.239 35.4785 234.473 34.8234 233.095 33.5132C231.728 32.1916 231.044 30.5452 231.044 28.5742C231.044 27.7881 231.107 26.8709 231.232 25.8228L231.403 24.1821L231.488 23.4814L232.445 16.4062ZM254.97 9.22852H257.396L256.081 19.1919C258.234 17.0158 260.695 15.9277 263.463 15.9277C266.004 15.9277 268.083 16.7424 269.701 18.3716C271.33 20.0008 272.145 22.0972 272.145 24.6606C272.145 27.6229 271.091 30.1693 268.983 32.2998C266.876 34.4189 264.392 35.4785 261.532 35.4785C259.983 35.4785 258.621 35.1538 257.448 34.5044C256.274 33.8436 255.272 32.8239 254.44 31.4453L254.013 35H251.535L254.97 9.22852ZM263.207 18.1152C261.68 18.1152 260.279 18.4798 259.003 19.209C257.738 19.9268 256.736 20.9635 255.995 22.3193C255.255 23.6751 254.884 25.1506 254.884 26.7456C254.884 28.6711 255.494 30.2376 256.713 31.4453C257.943 32.653 259.527 33.2568 261.464 33.2568C263.754 33.2568 265.714 32.4308 267.343 30.7788C268.972 29.1268 269.787 27.0988 269.787 24.6948C269.787 22.7238 269.177 21.1344 267.958 19.9268C266.75 18.7191 265.167 18.1152 263.207 18.1152Z" fill="#0063A4"/>
<defs>
<clipPath id="clip0_750_3">
<rect width="48" height="43" fill="white"/>
</clipPath>
</defs>
</svg>
