<?xml version="1.0" encoding="UTF-8"?>
<!DOCTYPE svg PUBLIC "-//W3C//DTD SVG 1.1//EN" "http://www.w3.org/Graphics/SVG/1.1/DTD/svg11.dtd">
<!-- Creator: CorelDRAW 2021 (64-Bit) -->
<svg xmlns="http://www.w3.org/2000/svg" xml:space="preserve" width="35.2238mm" height="24.1012mm" version="1.1" style="shape-rendering:geometricPrecision; text-rendering:geometricPrecision; image-rendering:optimizeQuality; fill-rule:evenodd; clip-rule:evenodd"
viewBox="0 0 877.27 600.25"
 xmlns:xlink="http://www.w3.org/1999/xlink"
 xmlns:xodm="http://www.corel.com/coreldraw/odm/2003">
 <defs>
  <style type="text/css">
   <![CDATA[
    .fil5 {fill:#EA5E20;fill-rule:nonzero}
    .fil6 {fill:#D65221;fill-rule:nonzero}
    .fil11 {fill:#C64D20;fill-rule:nonzero}
    .fil3 {fill:#CEE6EC;fill-rule:nonzero}
    .fil2 {fill:#A2D2D9;fill-rule:nonzero}
    .fil4 {fill:#49BBBD;fill-rule:nonzero}
    .fil8 {fill:#355B74;fill-rule:nonzero}
    .fil9 {fill:#2F5065;fill-rule:nonzero}
    .fil0 {fill:#008A98;fill-rule:nonzero}
    .fil1 {fill:#254969;fill-rule:nonzero}
    .fil10 {fill:#23415B;fill-rule:nonzero}
    .fil7 {fill:#28425B;fill-rule:nonzero}
    .fil12 {fill:#273E55;fill-rule:nonzero}
   ]]>
  </style>
 </defs>
 <g id="Layer_x0020_1">
  <metadata id="CorelCorpID_0Corel-Layer"/>
  <g id="_2081677463632">
   <polygon class="fil0" points="167.68,536.39 809.48,536.39 809.48,134.54 167.68,134.54 "/>
   <polygon class="fil1" points="809.48,536.39 809.48,532.71 171.36,532.71 171.36,138.23 805.79,138.23 805.79,536.39 809.48,536.39 809.48,532.71 809.48,536.39 813.17,536.39 813.17,130.86 163.99,130.86 163.99,540.08 813.17,540.08 813.17,536.39 "/>
   <polygon class="fil2" points="190.8,509.24 786.36,509.24 786.36,180.8 190.8,180.8 "/>
   <polygon class="fil1" points="786.36,509.24 786.36,505.55 194.49,505.55 194.49,184.49 782.67,184.49 782.67,509.24 786.36,509.24 786.36,505.55 786.36,509.24 790.04,509.24 790.04,177.11 187.12,177.11 187.12,512.93 790.04,512.93 790.04,509.24 "/>
   <path class="fil3" d="M200.42 500.44l0 -242.75c16.98,-7.63 39.29,-14.36 65.16,-14.36 0,0 0.01,0 0.01,0 14.81,0 30.79,2.2 47.65,7.71l2.99 0.98 0.74 -3.06c5.8,-23.77 15.91,-42.9 27.4,-58.1l428.3 0 -572.26 309.59z"/>
   <path class="fil4" d="M103.64 536.94c0.58,33.09 15.15,59.63 33.14,59.63l703.59 0c17.99,0 32.56,-26.54 33.14,-59.63l-769.87 0z"/>
   <path class="fil1" d="M103.64 536.94l-3.69 0.06c0.31,17.07 4.17,32.49 10.5,43.95 3.17,5.72 6.97,10.47 11.39,13.88 4.4,3.4 9.52,5.43 14.94,5.43l703.59 0c5.42,0.01 10.53,-2.03 14.94,-5.43 6.62,-5.12 11.88,-13.22 15.66,-23.18 3.77,-9.97 6.01,-21.84 6.23,-34.65l0.06 -3.75 -777.37 0 0.06 3.75 3.69 -0.06 0 3.69 769.87 0 0 -3.69 -3.69 -0.06c-0.27,16.02 -3.98,30.41 -9.58,40.5 -2.79,5.05 -6.04,9 -9.44,11.61 -3.41,2.61 -6.86,3.89 -10.44,3.9l-703.59 0c-3.58,-0 -7.03,-1.29 -10.44,-3.9 -5.1,-3.9 -9.85,-10.87 -13.26,-19.94 -3.42,-9.06 -5.55,-20.15 -5.76,-32.17l-3.69 0.06 0 3.69 0 -3.69z"/>
   <path class="fil0" d="M725.96 564.76c0,8.08 -6.55,14.64 -14.63,14.64 -8.08,0 -14.63,-6.55 -14.63,-14.64 0,-8.09 6.55,-14.63 14.63,-14.63 8.08,0 14.63,6.55 14.63,14.63z"/>
   <path class="fil1" d="M725.96 564.76l-3.69 0c-0,3.03 -1.22,5.75 -3.21,7.74 -1.99,1.99 -4.71,3.21 -7.74,3.21 -3.04,0 -5.75,-1.22 -7.74,-3.21 -1.99,-1.99 -3.2,-4.71 -3.21,-7.74 0,-3.04 1.22,-5.75 3.21,-7.74 1.99,-1.99 4.7,-3.2 7.74,-3.21 3.03,0 5.75,1.22 7.74,3.21 1.99,1.99 3.21,4.7 3.21,7.74l7.37 0c-0,-10.12 -8.2,-18.32 -18.32,-18.32 -10.12,0 -18.32,8.2 -18.32,18.32 0,10.12 8.2,18.32 18.32,18.32 10.12,0 18.32,-8.2 18.32,-18.32l-3.69 0z"/>
   <path class="fil0" d="M785.06 564.76c0,8.08 -6.55,14.64 -14.64,14.64 -8.08,0 -14.63,-6.55 -14.63,-14.64 0,-8.09 6.55,-14.63 14.63,-14.63 8.09,0 14.64,6.55 14.64,14.63z"/>
   <path class="fil1" d="M785.06 564.76l-3.69 0c0,3.04 -1.22,5.75 -3.21,7.74 -1.99,1.99 -4.7,3.21 -7.74,3.21 -3.03,0 -5.75,-1.22 -7.74,-3.21 -1.99,-1.99 -3.21,-4.71 -3.21,-7.74 0,-3.04 1.22,-5.75 3.21,-7.74 1.99,-1.98 4.71,-3.2 7.74,-3.21 3.04,0 5.75,1.22 7.74,3.21 1.99,1.99 3.21,4.7 3.21,7.74l7.37 0c0,-10.12 -8.2,-18.32 -18.32,-18.32 -10.12,0 -18.32,8.2 -18.32,18.32 0,10.12 8.2,18.32 18.32,18.32 10.12,0 18.32,-8.2 18.32,-18.32l-3.69 0z"/>
   <path class="fil2" d="M503.21 158c0,8.08 -6.55,14.64 -14.63,14.64 -8.08,0 -14.64,-6.55 -14.64,-14.64 0,-8.08 6.55,-14.63 14.64,-14.63 8.08,0 14.63,6.55 14.63,14.63z"/>
   <path class="fil1" d="M503.21 158l-3.69 0c0,3.04 -1.22,5.75 -3.21,7.74 -1.99,1.99 -4.7,3.21 -7.74,3.21 -3.04,0 -5.75,-1.22 -7.74,-3.21 -1.99,-1.99 -3.21,-4.7 -3.21,-7.74 0,-3.03 1.22,-5.75 3.21,-7.74 1.99,-1.99 4.71,-3.21 7.74,-3.21 3.04,0 5.75,1.22 7.74,3.21 1.99,1.99 3.21,4.71 3.21,7.74l7.38 0c-0,-10.12 -8.2,-18.32 -18.32,-18.32 -10.12,0 -18.32,8.2 -18.33,18.32 0,10.12 8.2,18.32 18.33,18.32 10.12,0 18.32,-8.2 18.32,-18.32l-3.69 0z"/>
   <polygon class="fil0" points="407.27,562.05 569.89,562.05 569.89,538.2 407.27,538.2 "/>
   <polygon class="fil1" points="569.89,562.05 569.89,558.36 410.96,558.36 410.96,541.89 566.2,541.89 566.2,562.05 569.89,562.05 569.89,558.36 569.89,562.05 573.58,562.05 573.58,534.51 403.58,534.51 403.58,565.74 573.58,565.74 573.58,562.05 "/>
   <path class="fil5" d="M39.97 350.22l-17.21 -0.16 -2.72 -110.28c-10.74,-18.82 -4.16,-42.87 14.66,-53.61l159.22 -90.84c19.46,-11.1 39.13,-10.71 45.76,0.9l7.54 13.22 -14.28 8.15 -7.55 -13.22c-1.42,-1.28 -10.92,-1.83 -23.32,5.24l-159.22 90.84c-10.95,6.25 -14.77,20.23 -8.53,31.18l5.64 118.58z"/>
   <path class="fil1" d="M39.97 350.22l0.03 -2.91 -14.39 -0.13 -2.67 -108.2 -0.36 -0.64c-3.24,-5.68 -4.77,-11.86 -4.78,-17.97 0,-12.66 6.6,-24.97 18.35,-31.67l159.22 -90.84c9.08,-5.19 18.16,-7.71 25.55,-7.7 3.91,-0 7.33,0.69 10.06,1.97 2.73,1.29 4.78,3.1 6.18,5.53l6.1 10.69 -9.22 5.27 -6.33 -11.11 -0.35 -0.31c-0.5,-0.44 -0.95,-0.66 -1.39,-0.84 -1.3,-0.5 -2.72,-0.67 -4.57,-0.69 -4.76,0 -12.13,1.49 -20.75,6.41l-159.22 90.84c-8.32,4.75 -13,13.47 -12.99,22.42 -0,4.32 1.09,8.72 3.38,12.73l2.53 -1.44 -2.91 0.14 5.64 118.59 2.91 -0.14 0.03 -2.91 -0.03 2.91 2.91 -0.14 -5.68 -119.29 -0.35 -0.61c-1.78,-3.12 -2.62,-6.5 -2.62,-9.85 0,-6.94 3.61,-13.69 10.06,-17.36l159.22 -90.84c7.79,-4.45 14.3,-5.65 17.87,-5.64 0.9,-0 1.61,0.08 2.03,0.17l0.37 0.1 0.17 -0.42 -0.23 0.39 0.06 0.03 0.17 -0.42 -0.23 0.39 0.8 -1.39 -1.07 1.19 0.27 0.2 0.8 -1.39 -1.07 1.19 1.95 -2.17 -2.53 1.44 8.99 15.75 19.34 -11.03 -8.98 -15.75c-2.01,-3.54 -5.1,-6.21 -8.77,-7.92 -3.68,-1.72 -7.93,-2.52 -12.52,-2.52 -8.68,0.01 -18.61,2.86 -28.44,8.46l-159.21 90.84c-13.64,7.78 -21.29,22.06 -21.29,36.73 0,7.09 1.79,14.28 5.54,20.85l2.53 -1.44 -2.91 0.07 2.79 113.09 23.1 0.21 -0.15 -3.08 -2.91 0.14z"/>
   <path class="fil6" d="M36.9 346.96l-5.59 0 -5.16 -118.59c-6.25,-10.95 -2.42,-24.93 8.53,-31.18l159.22 -90.84c2.87,-1.64 5.59,-2.87 8.08,-3.77 -0.37,1.01 -0.55,2.08 -0.55,3.16 -0,0.29 0.01,0.59 0.04,0.89 -0.28,0.15 -0.56,0.31 -0.84,0.47l-159.22 90.84c-8.32,4.75 -13,13.47 -12.99,22.42 -0,4.1 0.98,8.26 3.03,12.1l5.45 114.51z"/>
   <path class="fil7" d="M37.33 346.96l-0.43 0 -5.45 -114.51c-2.05,-3.84 -3.04,-8 -3.03,-12.1 -0,-8.95 4.67,-17.67 12.99,-22.42l159.22 -90.84c0.28,-0.16 0.56,-0.32 0.84,-0.47 0.1,0.98 0.35,1.97 0.77,2.9 -0.05,0.03 -0.11,0.06 -0.16,0.09l-159.22 90.84c-10.95,6.25 -14.77,20.23 -8.53,31.18l3 115.32z"/>
   <path class="fil8" d="M408.99 136.72c0,0 -74.28,27.14 -94.84,111.55 -86.2,-28.18 -150.63,28.51 -150.63,28.51l-51.46 -90.2 245.48 -140.05 51.46 90.2z"/>
   <path class="fil1" d="M408.99 136.72l-1 -2.73c-0.21,0.08 -19.05,6.98 -40.56,24.6 -21.49,17.61 -45.66,46.05 -56.12,88.99l2.83 0.69 0.91 -2.77c-17.46,-5.71 -34.08,-8 -49.46,-8 -30.96,0 -56.92,9.26 -75.13,18.5 -18.22,9.24 -28.73,18.48 -28.87,18.59l1.92 2.19 2.53 -1.44 -50.02 -87.67 240.42 -137.16 50.02 87.67 2.53 -1.44 -1 -2.73 1 2.73 2.53 -1.44 -52.9 -92.73 -250.54 142.94 54.67 95.83 2.68 -2.36 0.1 -0.08c1.11,-0.95 11.7,-9.88 29.23,-18.53 17.54,-8.65 41.97,-17.03 70.83,-17.03 14.81,0 30.79,2.2 47.65,7.71l2.99 0.98 0.74 -3.06c10.11,-41.47 33.37,-68.81 54.15,-85.86 10.39,-8.52 20.16,-14.45 27.3,-18.24 3.57,-1.9 6.49,-3.26 8.5,-4.14 1.01,-0.44 1.78,-0.76 2.3,-0.97 0.26,-0.1 0.46,-0.18 0.59,-0.23l0.17 -0.06 3.24 -1.19 -1.71 -2.99 -2.53 1.44z"/>
   <path class="fil9" d="M164.34 272.35l-40.47 -70.93 123.62 -70.53 64.67 113.36c-0.03,0.1 -0.05,0.21 -0.08,0.31 -16.38,-5.02 -31.98,-7.06 -46.49,-7.06 -30.96,0 -56.92,9.26 -75.13,18.5 -12.86,6.52 -21.87,13.04 -26.11,16.35z"/>
   <path class="fil10" d="M163.51 276.77l-42.17 -73.91 2.53 -1.44 40.47 70.93c4.24,-3.31 13.26,-9.83 26.11,-16.35 18.21,-9.24 44.17,-18.49 75.13,-18.5 14.51,0 30.11,2.04 46.49,7.06 0.03,-0.1 0.05,-0.21 0.08,-0.31l2.08 3.65 -0.1 0.37c-17.16,-5.61 -33.46,-7.86 -48.56,-7.86 -60.74,0 -102.08,36.36 -102.08,36.36z"/>
   <path class="fil5" d="M15.67 379.25c-0.11,11.87 -11.95,59.07 -11.95,59.07l45.49 0.42c0,0 -6.06,-36.01 -5.85,-59.23 0.1,-11.29 -6.01,-20.49 -13.66,-20.56 -7.65,-0.07 -13.93,9.02 -14.03,20.31z"/>
   <path class="fil1" d="M15.67 379.25l-2.91 -0.02c-0.01,2.55 -0.74,7.72 -1.86,13.73 -1.67,9.06 -4.17,20.24 -6.25,29.14 -1.04,4.45 -1.98,8.33 -2.65,11.1 -0.67,2.77 -1.09,4.41 -1.09,4.42l-0.9 3.58 52.66 0.49 -0.58 -3.43c0,0 -0.09,-0.53 -0.25,-1.52 -1.12,-6.9 -5.58,-36.06 -5.57,-56.01 0,-0.4 0,-0.8 0,-1.19l0 -0 0 -0.31c-0,-6.11 -1.64,-11.68 -4.48,-15.92 -1.42,-2.11 -3.16,-3.9 -5.2,-5.19 -2.03,-1.29 -4.38,-2.06 -6.86,-2.08l-0.12 -0c-2.48,-0 -4.85,0.75 -6.9,2.03 -3.09,1.92 -5.52,4.95 -7.23,8.59 -1.7,3.65 -2.68,7.95 -2.73,12.57l2.91 0.02 2.91 0.03c0.04,-5.09 1.5,-9.65 3.65,-12.75 1.07,-1.55 2.29,-2.74 3.55,-3.52 1.26,-0.78 2.52,-1.15 3.84,-1.16l0.06 0c1.32,0.01 2.57,0.4 3.81,1.18 1.85,1.16 3.63,3.27 4.91,6.09 1.28,2.82 2.06,6.31 2.06,10.09l0 0.26 0 -0c-0,0.42 -0,0.83 -0,1.25 0,11.85 1.48,26.42 2.95,38.09 1.47,11.66 2.94,20.39 2.95,20.41l2.87 -0.48 0.03 -2.91 -45.49 -0.42 -0.03 2.91 2.82 0.71c0,-0.01 2.97,-11.83 5.95,-25.16 1.49,-6.66 2.99,-13.71 4.12,-19.85 1.13,-6.18 1.92,-11.36 1.96,-14.74l-2.91 -0.03z"/>
   <path class="fil6" d="M45.79 435.79l-9.05 -0.08c-1.42,-9.03 -5.56,-37.07 -5.38,-56.32 0.05,-5.37 -1.32,-10.27 -3.58,-13.93l8.45 0.08c0.81,1.01 1.54,2.21 2.17,3.58 1.28,2.82 2.06,6.31 2.06,10.09l0 0.26 0 -0c-0,0.42 -0,0.83 -0,1.25 0,11.85 1.48,26.42 2.95,38.09 0.92,7.26 1.83,13.39 2.4,16.98z"/>
   <path class="fil7" d="M49.21 438.74l-12 -0.11c0,0 -0.18,-1.05 -0.47,-2.92l9.05 0.08c-0.56,-3.59 -1.48,-9.72 -2.4,-16.98 -1.47,-11.67 -2.95,-26.24 -2.95,-38.09 0,-0.42 0,-0.83 0,-1.25l0 0 0 -0.26c0,-3.79 -0.78,-7.28 -2.06,-10.09 -0.62,-1.37 -1.36,-2.57 -2.17,-3.58l3.57 0.03c2.26,3.67 3.61,8.56 3.56,13.93 -0.21,23.22 5.85,59.23 5.85,59.23z"/>
   <path class="fil5" d="M42.78 356.47c-0.03,3.44 -1.34,6.21 -2.92,6.2l-17.21 -0.16c-1.58,-0.01 -2.84,-2.81 -2.81,-6.24 0.03,-3.43 1.34,-6.21 2.92,-6.19l17.21 0.16c1.58,0.01 2.84,2.81 2.81,6.25z"/>
   <path class="fil1" d="M42.78 356.47l-2.91 -0.02c-0,1.34 -0.3,2.55 -0.6,3.17l-0.19 0.34 -0.06 0.08 0.51 0.49 -0.31 -0.62 -0.2 0.13 0.51 0.49 -0.31 -0.62 0.65 1.31 0 -1.46c-0.26,-0 -0.51,0.07 -0.65,0.15l0.65 1.31 0 -1.46 -0.04 0 0.03 2.91 0.03 -2.91 -17.21 -0.16 -0.01 1.21 0.86 -0.93c-0.03,-0.04 -0.37,-0.29 -0.85,-0.28l-0.01 1.21 0.86 -0.93 -0.09 0.1 0.1 -0.09 -0.01 -0.01 -0.09 0.1 0.1 -0.09c-0.03,-0.01 -0.3,-0.42 -0.47,-1.06 -0.18,-0.63 -0.31,-1.49 -0.31,-2.42l0 -0.11c0,-1.35 0.3,-2.55 0.6,-3.17l0.19 -0.34 0.06 -0.08 -0.51 -0.49 0.31 0.63 0.2 -0.13 -0.51 -0.49 0.31 0.63 -0.65 -1.31 0 1.45c0.26,0 0.51,-0.07 0.65,-0.15l-0.65 -1.31 0 1.45 0.01 0 -0 -2.66 -0.1 2.66 0.1 0 -0 -2.66 -0.1 2.66 0.04 0 17.25 0.16 0.01 -1.22 -0.86 0.93c0.03,0.04 0.37,0.28 0.85,0.28l0.01 -1.22 -0.86 0.93 0.09 -0.1 -0.1 0.09 0.01 0.01 0.09 -0.1 -0.1 0.09c0.03,0.02 0.3,0.43 0.47,1.07 0.18,0.64 0.31,1.5 0.31,2.43l0 0.13 0 -0.02 2.91 0.02 2.91 0 0 -0.13c-0.01,-2.05 -0.35,-3.92 -1.08,-5.53 -0.37,-0.81 -0.85,-1.57 -1.57,-2.24 -0.7,-0.66 -1.78,-1.25 -3.05,-1.26l-17.21 -0.16 -0.03 2.91 0.11 -2.91 -0.12 0c-1.28,-0.01 -2.37,0.58 -3.08,1.24 -1.08,1.01 -1.65,2.2 -2.09,3.51 -0.42,1.31 -0.64,2.77 -0.66,4.32l0 -0.02 -0 0.19c0.01,2.05 0.35,3.92 1.09,5.53 0.37,0.81 0.85,1.56 1.57,2.24 0.7,0.66 1.79,1.25 3.05,1.25l17.23 0.16 0.03 0 -0.03 -2.45 -0 2.45 0.03 0 -0.03 -2.45 -0 2.45 0.01 0c1.27,0 2.36,-0.58 3.07,-1.24 1.08,-1.01 1.66,-2.2 2.09,-3.51 0.42,-1.31 0.64,-2.77 0.66,-4.33l0 -0.03 -2.91 0z"/>
   <path class="fil11" d="M39.13 359.75l-6.08 -0.06c0.63,-0.68 1.06,-1.9 1.07,-3.3 0.01,-1.4 -0.39,-2.63 -1.01,-3.32l6.08 0.06c0.06,0.07 0.12,0.14 0.17,0.22 0.07,0.16 0.14,0.35 0.2,0.57 0.18,0.64 0.31,1.5 0.31,2.43l0 0.1c-0,1.29 -0.27,2.44 -0.56,3.08 -0.06,0.08 -0.12,0.15 -0.18,0.22zm0.74 -3.28l0 -0.02 0 0.02z"/>
   <path class="fil12" d="M37.99 360.31c-0,0 -0.01,0 -0.01,0l-6.09 -0.06c0,0 0.01,0 0.01,0 0.42,0 0.81,-0.2 1.14,-0.56l6.08 0.06c-0.33,0.36 -0.72,0.56 -1.14,0.56zm1.32 -0.78c0.28,-0.64 0.55,-1.79 0.56,-3.08l0 -0.1c0,-0.93 -0.12,-1.79 -0.31,-2.43 -0.06,-0.22 -0.13,-0.41 -0.2,-0.57 0.52,0.71 0.85,1.84 0.83,3.1 -0.01,1.26 -0.36,2.37 -0.89,3.08zm0.56 -3.08l0 0.02 0 -0.02zm-0.68 -3.32l-6.08 -0.06c-0.33,-0.37 -0.72,-0.58 -1.14,-0.58l6.08 0.06c0.42,0 0.81,0.22 1.14,0.58z"/>
   <path class="fil8" d="M419.96 10.9c4.33,7.6 1.69,17.27 -5.91,21.6l-348.11 198.61c-7.6,4.33 -17.27,1.69 -21.6,-5.91 -4.33,-7.6 -1.69,-17.27 5.91,-21.61l348.11 -198.61c7.6,-4.33 17.27,-1.69 21.6,5.91z"/>
   <path class="fil1" d="M419.96 10.9l-2.53 1.44c1.16,2.03 1.7,4.22 1.7,6.39 -0,4.5 -2.34,8.86 -6.52,11.24l-348.11 198.61c-2.03,1.15 -4.22,1.7 -6.39,1.7 -4.5,-0 -8.86,-2.34 -11.24,-6.52 -1.16,-2.03 -1.7,-4.22 -1.7,-6.39 0,-4.5 2.34,-8.86 6.52,-11.24l348.11 -198.61c2.03,-1.16 4.22,-1.7 6.39,-1.7 4.5,0 8.86,2.34 11.24,6.52l2.53 -1.44 2.53 -1.44c-3.45,-6.06 -9.79,-9.46 -16.3,-9.46 -3.15,0 -6.35,0.8 -9.27,2.47l-348.11 198.61c-6.06,3.46 -9.46,9.79 -9.46,16.3 -0,3.15 0.8,6.35 2.47,9.27 3.46,6.06 9.79,9.47 16.3,9.46 3.15,0 6.35,-0.8 9.27,-2.47l348.11 -198.61c6.06,-3.46 9.46,-9.79 9.46,-16.3 0,-3.15 -0.8,-6.35 -2.47,-9.28l-2.53 1.44z"/>
   <path class="fil9" d="M58.1 230.29c-4.44,-0 -8.74,-2.28 -11.15,-6.36l370.56 -211.41c1.1,1.98 1.61,4.11 1.61,6.23 -0,4.5 -2.34,8.86 -6.52,11.24l-348.11 198.61c-2.03,1.15 -4.22,1.7 -6.39,1.7z"/>
   <path class="fil10" d="M58.11 233.2c-5.44,0 -10.73,-2.81 -13.68,-7.83l2.52 -1.44c2.4,4.08 6.71,6.36 11.15,6.36 2.17,-0 4.36,-0.55 6.39,-1.7l348.11 -198.61c4.18,-2.38 6.52,-6.74 6.52,-11.24 -0,-2.11 -0.52,-4.24 -1.61,-6.23l2.52 -1.44c4.2,7.57 1.55,17.13 -5.99,21.43l-348.11 198.61c-2.48,1.41 -5.17,2.08 -7.83,2.08z"/>
   <path class="fil8" d="M249.62 83.55c1.75,3.07 0.68,6.97 -2.39,8.72l-33.33 19.02c-3.07,1.75 -6.98,0.68 -8.73,-2.39 -1.75,-3.07 -0.68,-6.97 2.39,-8.72l33.33 -19.02c3.07,-1.75 6.98,-0.68 8.73,2.39z"/>
   <path class="fil1" d="M249.62 83.55l-2.53 1.44c0.32,0.55 0.46,1.13 0.46,1.72 -0,1.22 -0.63,2.39 -1.76,3.03l-33.33 19.02c-0.55,0.31 -1.14,0.46 -1.72,0.46 -1.22,-0 -2.39,-0.63 -3.03,-1.76 -0.31,-0.55 -0.46,-1.14 -0.46,-1.72 0,-1.22 0.63,-2.39 1.76,-3.03l33.33 -19.02c0.56,-0.32 1.14,-0.46 1.72,-0.46 1.22,0 2.39,0.63 3.03,1.76l2.53 -1.44 2.53 -1.44c-1.72,-3 -4.87,-4.7 -8.09,-4.7 -1.56,0 -3.16,0.4 -4.61,1.23l-33.33 19.02c-3.01,1.71 -4.7,4.86 -4.69,8.09 -0,1.56 0.4,3.16 1.22,4.61 1.71,3 4.86,4.7 8.09,4.69 1.56,0 3.16,-0.4 4.61,-1.23l33.33 -19.02c3,-1.72 4.7,-4.86 4.7,-8.09 0,-1.56 -0.4,-3.16 -1.22,-4.61l-2.53 1.44z"/>
   <path class="fil9" d="M210.74 109.22c-0.91,-0 -1.8,-0.35 -2.45,-1l39.16 -22.34c0.07,0.27 0.1,0.55 0.1,0.83 -0,1.22 -0.63,2.39 -1.76,3.03l-33.33 19.02c-0.55,0.31 -1.14,0.46 -1.72,0.46z"/>
   <path class="fil10" d="M210.76 112.12c-1.92,0 -3.79,-0.87 -5.03,-2.44l2.56 -1.46c0.66,0.65 1.54,1 2.45,1 0.59,-0 1.17,-0.15 1.72,-0.46l33.33 -19.02c1.13,-0.65 1.76,-1.82 1.76,-3.03 0,-0.28 -0.03,-0.56 -0.1,-0.83l2.56 -1.46c1.13,2.9 0.01,6.26 -2.77,7.85l-33.33 19.02c-0.99,0.57 -2.07,0.83 -3.14,0.83z"/>
  </g>
 </g>
</svg>
