<?xml version="1.0" encoding="UTF-8"?>
<!DOCTYPE svg PUBLIC "-//W3C//DTD SVG 1.1//EN" "http://www.w3.org/Graphics/SVG/1.1/DTD/svg11.dtd">
<!-- Creator: CorelDRAW 2021 (64-Bit) -->
<svg xmlns="http://www.w3.org/2000/svg" xml:space="preserve" width="87.4824mm" height="63.1153mm" version="1.1" style="shape-rendering:geometricPrecision; text-rendering:geometricPrecision; image-rendering:optimizeQuality; fill-rule:evenodd; clip-rule:evenodd"
viewBox="0 0 8183.95 5904.41"
 xmlns:xlink="http://www.w3.org/1999/xlink"
 xmlns:xodm="http://www.corel.com/coreldraw/odm/2003">
 <defs>
  <style type="text/css">
   <![CDATA[
    .fil5 {fill:#EA5E20;fill-rule:nonzero}
    .fil6 {fill:#D65221;fill-rule:nonzero}
    .fil11 {fill:#C64D20;fill-rule:nonzero}
    .fil3 {fill:#CEE6EC;fill-rule:nonzero}
    .fil2 {fill:#A2D2D9;fill-rule:nonzero}
    .fil4 {fill:#49BBBD;fill-rule:nonzero}
    .fil8 {fill:#355B74;fill-rule:nonzero}
    .fil9 {fill:#2F5065;fill-rule:nonzero}
    .fil0 {fill:#008A98;fill-rule:nonzero}
    .fil1 {fill:#254969;fill-rule:nonzero}
    .fil10 {fill:#23415B;fill-rule:nonzero}
    .fil7 {fill:#28425B;fill-rule:nonzero}
    .fil12 {fill:#273E55;fill-rule:nonzero}
    .fil14 {fill:#0063A4;fill-rule:nonzero}
    .fil13 {fill:#FF0B80;fill-rule:nonzero}
   ]]>
  </style>
 </defs>
 <g id="Layer_x0020_1">
  <metadata id="CorelCorpID_0Corel-Layer"/>
  <g id="_1827458986336">
   <g>
    <polygon class="fil0" points="1731.56,3753.23 6222.33,3753.23 6222.33,941.43 1731.56,941.43 "/>
    <polygon class="fil1" points="6222.33,3753.23 6222.33,3727.44 1757.35,3727.44 1757.35,967.23 6196.55,967.23 6196.55,3753.23 6222.33,3753.23 6222.33,3727.44 6222.33,3753.23 6248.14,3753.23 6248.14,915.63 1705.75,915.63 1705.75,3779.04 6248.14,3779.04 6248.14,3753.23 "/>
    <polygon class="fil2" points="1893.37,3563.25 6060.52,3563.25 6060.52,1265.1 1893.37,1265.1 "/>
    <polygon class="fil1" points="6060.52,3563.25 6060.52,3537.44 1919.18,3537.44 1919.18,1290.89 6034.71,1290.89 6034.71,3563.25 6060.52,3563.25 6060.52,3537.44 6060.52,3563.25 6086.31,3563.25 6086.31,1239.29 1867.59,1239.29 1867.59,3589.03 6086.31,3589.03 6086.31,3563.25 "/>
    <path class="fil3" d="M1960.65 3501.65l0 -1698.57c118.78,-53.4 274.93,-100.5 455.94,-100.5 0.01,0 0.04,0 0.07,0 103.61,0 215.44,15.39 333.42,53.98l20.94 6.83 5.2 -21.39c40.54,-166.31 111.31,-300.16 191.72,-406.57l2996.85 0 -4004.15 2166.22z"/>
    <path class="fil4" d="M1283.53 3757.02c4.07,231.52 105.95,417.23 231.9,417.23l4923.08 0c125.91,0 227.83,-185.71 231.87,-417.23l-5386.85 0z"/>
    <path class="fil1" d="M1283.53 3757.02l-25.79 0.46c2.16,119.44 29.2,227.34 73.46,307.49 22.2,40.04 48.8,73.27 79.7,97.1 30.81,23.78 66.58,38.04 104.53,37.98l4923.08 0c37.93,0.06 73.7,-14.2 104.5,-37.98 46.32,-35.8 83.14,-92.48 109.56,-162.16 26.33,-69.75 42.03,-152.85 43.61,-242.42l0.45 -26.24 -5439.36 0 0.47 26.24 25.79 -0.46 0 25.81 5386.85 0 0 -25.81 -25.78 -0.45c-1.9,112.07 -27.84,212.79 -67.03,283.4 -19.52,35.31 -42.28,62.97 -66.02,81.2 -23.86,18.26 -48.04,27.23 -73.04,27.27l-4923.08 0c-25.02,-0.04 -49.21,-9.01 -73.06,-27.27 -35.66,-27.27 -68.88,-76.07 -92.75,-139.52 -23.97,-63.36 -38.83,-141.02 -40.28,-225.08l-25.8 0.45 0 25.81 0 -25.81z"/>
    <path class="fil0" d="M5637.97 3951.71c0,56.57 -45.85,102.42 -102.4,102.42 -56.57,0 -102.41,-45.85 -102.41,-102.42 0,-56.57 45.84,-102.4 102.41,-102.4 56.55,0 102.4,45.83 102.4,102.4z"/>
    <path class="fil1" d="M5637.97 3951.71l-25.79 0c-0.02,21.24 -8.54,40.24 -22.45,54.18 -13.93,13.9 -32.92,22.42 -54.16,22.42 -21.25,0 -40.24,-8.52 -54.17,-22.42 -13.91,-13.95 -22.41,-32.93 -22.43,-54.18 0.03,-21.24 8.52,-40.23 22.43,-54.17 13.93,-13.9 32.91,-22.41 54.17,-22.42 21.24,0.02 40.23,8.52 54.16,22.42 13.91,13.95 22.43,32.93 22.45,54.17l51.6 0c-0.03,-70.82 -57.41,-128.17 -128.21,-128.18 -70.83,0 -128.19,57.38 -128.19,128.18 0,70.82 57.35,128.21 128.19,128.21 70.82,0 128.18,-57.39 128.21,-128.21l-25.81 0z"/>
    <path class="fil0" d="M6051.49 3951.71c0,56.57 -45.85,102.42 -102.43,102.42 -56.57,0 -102.39,-45.85 -102.39,-102.42 0,-56.57 45.82,-102.4 102.39,-102.4 56.58,0 102.43,45.83 102.43,102.4z"/>
    <path class="fil1" d="M6051.49 3951.71l-25.81 0c0,21.25 -8.52,40.24 -22.43,54.18 -13.95,13.9 -32.92,22.42 -54.18,22.42 -21.23,0 -40.23,-8.52 -54.16,-22.42 -13.91,-13.95 -22.43,-32.93 -22.45,-54.18 0.02,-21.24 8.54,-40.23 22.45,-54.17 13.93,-13.88 32.93,-22.41 54.16,-22.42 21.26,0.02 40.25,8.54 54.18,22.42 13.91,13.94 22.43,32.93 22.43,54.17l51.59 0c0,-70.82 -57.38,-128.18 -128.21,-128.18 -70.82,0 -128.18,57.36 -128.2,128.18 0.02,70.82 57.38,128.21 128.2,128.21 70.85,0 128.21,-57.39 128.21,-128.21l-25.78 0z"/>
    <path class="fil2" d="M4079.36 1105.52c0,56.57 -45.84,102.43 -102.4,102.43 -56.57,0 -102.41,-45.86 -102.41,-102.43 0,-56.57 45.84,-102.4 102.41,-102.4 56.56,0 102.4,45.83 102.4,102.4z"/>
    <path class="fil1" d="M4079.36 1105.52l-25.81 0c0,21.25 -8.51,40.24 -22.42,54.18 -13.93,13.91 -32.92,22.43 -54.17,22.43 -21.25,0 -40.25,-8.52 -54.17,-22.43 -13.91,-13.95 -22.43,-32.93 -22.43,-54.18 0,-21.23 8.52,-40.23 22.43,-54.16 13.93,-13.91 32.92,-22.43 54.17,-22.45 21.25,0.02 40.24,8.54 54.17,22.45 13.91,13.93 22.42,32.93 22.42,54.16l51.62 0c-0.02,-70.82 -57.38,-128.18 -128.21,-128.21 -70.84,0.03 -128.2,57.39 -128.22,128.21 0.02,70.85 57.38,128.21 128.22,128.21 70.83,0 128.19,-57.36 128.21,-128.21l-25.81 0z"/>
    <polygon class="fil0" points="3408.02,3932.75 4545.9,3932.75 4545.9,3765.87 3408.02,3765.87 "/>
    <polygon class="fil1" points="4545.9,3932.75 4545.9,3906.94 3433.81,3906.94 3433.81,3791.65 4520.09,3791.65 4520.09,3932.75 4545.9,3932.75 4545.9,3906.94 4545.9,3932.75 4571.69,3932.75 4571.69,3740.06 3382.23,3740.06 3382.23,3958.54 4571.69,3958.54 4571.69,3932.75 "/>
    <path class="fil5" d="M838 2450.57l-120.41 -1.11 -19.04 -771.63c-75.15,-131.7 -29.13,-299.99 102.59,-375.13l1114.05 -635.61c136.17,-77.69 273.81,-74.98 320.17,6.27l52.8 92.53 -99.94 57 -52.79 -92.53c-9.98,-8.94 -76.44,-12.81 -163.21,36.68l-1114.06 635.62c-76.59,43.7 -103.35,141.56 -59.66,218.15l39.5 829.77z"/>
    <path class="fil1" d="M838 2450.57l0.19 -20.38 -100.71 -0.94 -18.68 -757.06 -2.55 -4.46c-22.67,-39.76 -33.4,-82.97 -33.41,-125.72 0.03,-88.58 46.16,-174.72 128.4,-221.61l1114.06 -635.61c63.55,-36.33 127.09,-53.92 178.8,-53.85 27.36,-0.01 51.27,4.86 70.37,13.8 19.12,9 33.45,21.71 43.21,38.69l42.68 74.83 -64.54 36.84 -44.33 -77.72 -2.47 -2.2c-3.49,-3.07 -6.64,-4.58 -9.71,-5.87 -9.09,-3.51 -19.02,-4.71 -31.97,-4.8 -33.32,0.05 -84.84,10.44 -145.21,44.83l-1114.07 635.6c-58.23,33.25 -90.94,94.26 -90.91,156.87 -0.01,30.25 7.63,61 23.65,89.09l17.71 -10.1 -20.36 0.97 39.5 829.77 20.36 -0.97 0.19 -20.38 -0.19 20.38 20.35 -0.96 -39.73 -834.66 -2.42 -4.24c-12.43,-21.8 -18.3,-45.45 -18.3,-68.89 0.02,-48.58 25.3,-95.77 70.37,-121.48l1114.05 -635.6c54.51,-31.16 100.07,-39.53 125.02,-39.47 6.32,-0.03 11.25,0.54 14.2,1.18l2.56 0.68 1.19 -2.97 -1.59 2.75 0.4 0.22 1.19 -2.97 -1.59 2.75 5.6 -9.74 -7.48 8.35 1.88 1.38 5.6 -9.74 -7.48 8.35 13.61 -15.18 -17.71 10.09 62.89 110.24 135.32 -77.2 -62.87 -110.24c-14.1,-24.78 -35.66,-43.45 -61.34,-55.41 -25.74,-12.01 -55.5,-17.63 -87.63,-17.65 -60.73,0.07 -130.24,20.03 -199.02,59.21l-1114.05 635.61c-95.4,54.45 -148.98,154.38 -148.95,257.01 -0.01,49.59 12.51,99.89 38.77,145.92l17.7 -10.1 -20.38 0.51 19.53 791.3 161.66 1.5 -1.03 -21.54 -20.35 0.96z"/>
    <path class="fil6" d="M816.51 2427.71l-39.1 0 -36.12 -829.77c-43.7,-76.59 -16.94,-174.45 59.66,-218.16l1114.06 -635.61c20.09,-11.47 39.09,-20.06 56.57,-26.4 -2.56,7.06 -3.86,14.56 -3.85,22.09 -0.01,2.08 0.1,4.13 0.29,6.21 -1.96,1.07 -3.91,2.16 -5.88,3.28l-1114.07 635.6c-58.23,33.25 -90.94,94.26 -90.91,156.87 -0.01,28.7 6.87,57.81 21.24,84.68l38.13 801.21z"/>
    <path class="fil7" d="M819.49 2427.71l-2.98 0 -38.13 -801.21c-14.37,-26.87 -21.25,-55.98 -21.24,-84.68 -0.03,-62.61 32.69,-123.63 90.91,-156.87l1114.07 -635.6c1.97,-1.12 3.93,-2.22 5.88,-3.28 0.66,6.87 2.43,13.76 5.37,20.32 -0.38,0.22 -0.76,0.44 -1.16,0.65l-1114.06 635.62c-76.59,43.7 -103.35,141.56 -59.66,218.15l20.99 806.9z"/>
    <path class="fil8" d="M3420.07 956.67c0,0 -519.72,189.91 -663.64,780.5 -603.17,-197.18 -1054,199.48 -1054,199.48l-360.09 -631.14 1717.64 -979.97 360.09 631.13z"/>
    <path class="fil1" d="M3420.07 956.67l-7.01 -19.12c-1.44,0.55 -133.31,48.8 -283.76,172.16 -150.39,123.23 -319.49,322.2 -392.67,622.65l19.8 4.82 6.33 -19.36c-122.17,-39.95 -238.44,-56 -346.1,-56 -216.64,0.02 -398.28,64.78 -525.72,129.43 -127.51,64.67 -201.04,129.29 -201.97,130.1l13.46 15.3 17.7 -10.1 -350 -613.44 1682.24 -959.76 349.99 613.43 17.71 -10.1 -7.01 -19.12 7.01 19.12 17.68 -10.09 -370.18 -648.84 -1753.03 1000.17 382.56 670.55 18.78 -16.51 0.66 -0.57c7.74,-6.65 81.88,-69.11 204.53,-129.65 122.69,-60.55 293.69,-119.14 495.59,-119.14 103.61,0 215.44,15.39 333.42,53.98l20.94 6.83 5.2 -21.39c70.74,-290.15 233.44,-481.44 378.91,-600.79 72.7,-59.63 141.03,-101.13 191.01,-127.62 25,-13.27 45.42,-22.77 59.48,-28.94 7.04,-3.07 12.49,-5.31 16.13,-6.76 1.82,-0.73 3.19,-1.25 4.09,-1.6l1.21 -0.46 22.66 -8.29 -11.96 -20.96 -17.68 10.09z"/>
    <path class="fil9" d="M1708.22 1905.65l-283.17 -496.31 864.96 -493.49 452.55 793.2c-0.19,0.72 -0.38,1.47 -0.57,2.19 -114.61,-35.16 -223.78,-49.42 -325.32,-49.42 -216.64,0.02 -398.28,64.78 -525.72,129.43 -89.95,45.63 -153.05,91.22 -182.73,114.41z"/>
    <path class="fil10" d="M1702.44 1936.65l-295.08 -517.2 17.7 -10.1 283.17 496.31c29.68,-23.19 92.78,-68.78 182.73,-114.41 127.44,-64.64 309.08,-129.41 525.72,-129.43 101.54,0 210.71,14.27 325.32,49.42 0.19,-0.72 0.38,-1.47 0.57,-2.19l14.56 25.5 -0.68 2.62c-120.09,-39.26 -234.12,-54.97 -339.76,-54.97 -425.03,0 -714.23,254.45 -714.23,254.45z"/>
    <path class="fil5" d="M667.96 2653.67c-0.77,83.03 -83.59,413.3 -83.59,413.3l318.27 2.94c0,0 -42.43,-251.98 -40.95,-414.45 0.74,-78.98 -42.04,-143.39 -95.54,-143.89 -53.5,-0.49 -97.47,63.12 -98.19,142.1z"/>
    <path class="fil1" d="M667.96 2653.67l-20.38 -0.19c-0.08,17.87 -5.22,54.04 -13.03,96.09 -11.7,63.37 -29.22,141.62 -43.77,203.87 -7.28,31.14 -13.83,58.3 -18.55,77.67 -4.72,19.36 -7.61,30.85 -7.62,30.89l-6.29 25.09 368.46 3.4 -4.05 -23.99c0,0 -0.62,-3.7 -1.73,-10.63 -7.8,-48.26 -39.04,-252.29 -38.96,-391.94 0,-2.81 0,-5.58 0.03,-8.29l0 -0.04 0.01 -2.18c-0.04,-42.74 -11.47,-81.76 -31.35,-111.4 -9.96,-14.8 -22.13,-27.31 -36.39,-36.31 -14.21,-9.01 -30.67,-14.4 -47.99,-14.53l-0.82 -0.03c-17.38,-0.01 -33.96,5.28 -48.31,14.2 -21.61,13.43 -38.62,34.63 -50.56,60.13 -11.9,25.55 -18.76,55.66 -19.07,87.96l20.38 0.19 20.37 0.19c0.28,-35.61 10.52,-67.48 25.52,-89.21 7.47,-10.87 16.04,-19.21 24.81,-24.61 8.8,-5.43 17.64,-8.06 26.86,-8.08l0.43 0c9.21,0.09 17.96,2.81 26.63,8.25 12.96,8.1 25.39,22.87 34.32,42.61 8.96,19.69 14.43,44.14 14.43,70.63l-0.01 1.83 0 -0.04c-0.04,2.91 -0.04,5.81 -0.04,8.71 0.01,82.95 10.36,184.87 20.65,266.51 10.3,81.57 20.59,142.64 20.62,142.82l20.09 -3.38 0.19 -20.38 -318.27 -2.92 -0.18 20.37 19.75 4.97c0.03,-0.11 20.77,-82.8 41.63,-176.03 10.44,-46.63 20.91,-95.89 28.86,-138.93 7.92,-43.23 13.42,-79.47 13.71,-103.12l-20.37 -0.19z"/>
    <path class="fil6" d="M878.69 3049.3l-63.33 -0.57c-9.93,-63.19 -38.89,-259.38 -37.64,-394.06 0.35,-37.61 -9.2,-71.85 -25.06,-97.46l59.1 0.55c5.64,7.03 10.81,15.45 15.16,25.05 8.96,19.69 14.43,44.14 14.43,70.63l-0.01 1.83 0 -0.04c-0.04,2.91 -0.04,5.81 -0.04,8.71 0.01,82.95 10.36,184.87 20.65,266.51 6.42,50.83 12.84,93.71 16.76,118.84z"/>
    <path class="fil7" d="M902.64 3069.91l-83.98 -0.76c0,0 -1.24,-7.38 -3.3,-20.42l63.33 0.57c-3.93,-25.13 -10.35,-68 -16.76,-118.84 -10.29,-81.64 -20.64,-183.56 -20.65,-266.51 0,-2.9 0,-5.8 0.04,-8.71l0 0.04 0.01 -1.83c0.01,-26.49 -5.46,-50.94 -14.43,-70.63 -4.34,-9.61 -9.51,-18.02 -15.16,-25.05l25.02 0.22c15.8,25.66 25.28,59.93 24.93,97.47 -1.49,162.48 40.95,414.45 40.95,414.45z"/>
    <path class="fil5" d="M857.65 2494.28c-0.22,24.04 -9.38,43.44 -20.45,43.34l-120.39 -1.13c-11.09,-0.09 -19.91,-19.65 -19.67,-43.69 0.22,-24.02 9.37,-43.44 20.45,-43.34l120.41 1.11c11.09,0.1 19.88,19.68 19.65,43.71z"/>
    <path class="fil1" d="M857.65 2494.28l-20.38 -0.17c-0.03,9.41 -2.1,17.84 -4.19,22.16l-1.32 2.36 -0.43 0.56 3.55 3.44 -2.17 -4.37 -1.38 0.93 3.55 3.44 -2.17 -4.37 4.57 9.17 0 -10.19c-1.82,-0.02 -3.56,0.51 -4.57,1.02l4.57 9.17 0 -10.19 -0.3 0 0.22 20.38 0.19 -20.38 -120.4 -1.12 -0.08 8.5 6 -6.53c-0.2,-0.28 -2.59,-1.99 -5.92,-1.97l-0.07 8.5 6 -6.53 -0.65 0.7 0.71 -0.65 -0.07 -0.06 -0.65 0.7 0.71 -0.65c-0.22,-0.11 -2.08,-2.96 -3.29,-7.44 -1.29,-4.44 -2.17,-10.44 -2.16,-16.95l0 -0.78c0.04,-9.43 2.1,-17.86 4.19,-22.18l1.32 -2.37 0.43 -0.56 -3.57 -3.45 2.18 4.39 1.39 -0.94 -3.57 -3.45 2.18 4.39 -4.56 -9.15 0 10.18c1.81,0.01 3.55,-0.52 4.56,-1.03l-4.56 -9.15 0 10.18 0.05 0 -0.02 -18.61 -0.7 18.58 0.72 0.03 -0.02 -18.61 -0.7 18.58 0.29 0.03 120.69 1.09 0.08 -8.5 -6.02 6.53c0.2,0.27 2.58,1.99 5.94,1.97l0.08 -8.5 -6.02 6.53 0.63 -0.68 -0.69 0.61 0.07 0.07 0.63 -0.68 -0.69 0.61c0.22,0.13 2.1,3.01 3.3,7.49 1.29,4.46 2.18,10.48 2.17,17.01l0 0.89 0 -0.17 20.38 0.17 20.37 0 0 -0.89c-0.05,-14.35 -2.46,-27.42 -7.57,-38.71 -2.61,-5.64 -5.91,-10.97 -10.95,-15.66 -4.9,-4.63 -12.49,-8.77 -21.32,-8.82l-120.4 -1.1 -0.2 20.37 0.77 -20.37 -0.85 0c-8.92,-0.04 -16.56,4.08 -21.52,8.69 -7.57,7.08 -11.58,15.41 -14.62,24.56 -2.93,9.19 -4.48,19.37 -4.59,30.27l0 -0.18 -0.01 1.33c0.05,14.33 2.48,27.4 7.59,38.68 2.63,5.63 5.93,10.95 10.97,15.65 4.91,4.61 12.5,8.73 21.31,8.77l120.57 1.12 0.22 0 -0.19 -17.18 -0.04 17.18 0.22 0 -0.19 -17.18 -0.04 17.18 0.09 0c8.92,0.04 16.54,-4.08 21.51,-8.69 7.57,-7.06 11.59,-15.4 14.63,-24.54 2.92,-9.19 4.49,-19.39 4.59,-30.28l0 -0.2 -20.37 0z"/>
    <path class="fil11" d="M832.09 2517.21l-42.56 -0.4c4.41,-4.74 7.4,-13.28 7.49,-23.08 0.08,-9.79 -2.74,-18.4 -7.07,-23.23l42.57 0.4c0.42,0.47 0.83,0.99 1.23,1.52 0.47,1.12 0.96,2.45 1.37,3.97 1.29,4.46 2.18,10.48 2.17,17.01l0 0.72c-0.03,9 -1.92,17.09 -3.91,21.55 -0.41,0.55 -0.83,1.07 -1.28,1.54zm5.19 -22.93l0 -0.17 0 0.17z"/>
    <path class="fil12" d="M824.12 2521.15c-0.02,0 -0.05,0 -0.07,0l-42.58 -0.4c0.04,0 0.06,0 0.08,0 2.92,0 5.64,-1.44 7.98,-3.95l42.56 0.4c-2.33,2.51 -5.05,3.95 -7.97,3.95zm9.25 -5.49c1.99,-4.46 3.88,-12.55 3.91,-21.55l0 -0.72c0.01,-6.53 -0.88,-12.55 -2.17,-17.01 -0.4,-1.52 -0.9,-2.84 -1.37,-3.97 3.63,5.01 5.92,12.86 5.84,21.69 -0.07,8.82 -2.51,16.62 -6.21,21.55zm3.91 -21.55l0 0.17 0 -0.17zm-4.76 -23.21l-42.57 -0.4c-2.31,-2.55 -5.03,-4.06 -7.97,-4.08l42.57 0.4c2.94,0.02 5.67,1.52 7.97,4.08z"/>
    <path class="fil8" d="M3496.79 76.31c30.33,53.17 11.82,120.85 -41.33,151.16l-2435.79 1389.7c-53.15,30.33 -120.83,11.82 -151.15,-41.33 -30.33,-53.15 -11.82,-120.83 41.33,-151.17l2435.79 -1389.69c53.15,-30.32 120.82,-11.81 151.15,41.33z"/>
    <path class="fil1" d="M3496.79 76.31l-17.71 10.11c8.11,14.2 11.9,29.51 11.93,44.72 -0.04,31.46 -16.38,61.96 -45.64,78.64l-2435.78 1389.71c-14.2,8.07 -29.51,11.87 -44.71,11.89 -31.49,-0.04 -61.98,-16.37 -78.66,-45.64 -8.1,-14.21 -11.91,-29.52 -11.91,-44.71 0.03,-31.48 16.36,-61.96 45.64,-78.66l2435.78 -1389.68c14.2,-8.08 29.51,-11.9 44.71,-11.9 31.46,0.02 61.97,16.36 78.64,45.62l17.71 -10.1 17.69 -10.09c-24.18,-42.37 -68.51,-66.21 -114.04,-66.2 -22.03,0 -44.45,5.6 -64.9,17.28l-2435.79 1389.68c-42.4,24.19 -66.23,68.53 -66.2,114.05 -0.01,22.04 5.58,44.45 17.25,64.9 24.19,42.4 68.53,66.23 114.07,66.2 22.02,0 44.44,-5.58 64.9,-17.25l2435.78 -1389.71c42.38,-24.19 66.23,-68.51 66.2,-114.03 0.02,-22.03 -5.58,-44.46 -17.27,-64.92l-17.69 10.09z"/>
    <path class="fil9" d="M964.88 1611.37c-31.08,-0.04 -61.19,-15.96 -78,-44.52l2592.85 -1479.29c7.67,13.87 11.25,28.79 11.28,43.58 -0.04,31.46 -16.38,61.96 -45.64,78.64l-2435.78 1389.71c-14.2,8.07 -29.51,11.87 -44.71,11.89z"/>
    <path class="fil10" d="M964.93 1631.74c-38.08,0 -75.11,-19.67 -95.7,-54.8l17.65 -10.08c16.81,28.56 46.92,44.48 78,44.52 15.19,-0.02 30.51,-3.82 44.71,-11.89l2435.78 -1389.71c29.26,-16.68 45.61,-47.18 45.64,-78.64 -0.03,-14.78 -3.61,-29.7 -11.28,-43.58l17.65 -10.08c29.41,52.97 10.85,119.88 -41.92,149.98l-2435.79 1389.7c-17.31,9.89 -36.16,14.58 -54.75,14.58z"/>
    <path class="fil8" d="M2304.92 584.59c12.26,21.46 4.79,48.79 -16.69,61.05l-233.19 133.05c-21.49,12.24 -48.82,4.76 -61.07,-16.68 -12.24,-21.47 -4.76,-48.81 16.7,-61.05l233.21 -133.07c21.48,-12.25 48.8,-4.78 61.04,16.7z"/>
    <path class="fil1" d="M2304.92 584.59l-17.7 10.09c2.23,3.87 3.21,7.93 3.23,12.03 -0.04,8.52 -4.41,16.7 -12.32,21.22l-233.18 133.05c-3.87,2.2 -7.95,3.21 -12.05,3.23 -8.54,-0.04 -16.72,-4.41 -21.22,-12.29 -2.21,-3.87 -3.21,-7.96 -3.21,-12.06 0.02,-8.52 4.38,-16.7 12.29,-21.19l233.21 -133.07c3.89,-2.2 7.95,-3.2 12.05,-3.2 8.52,0.01 16.7,4.38 21.2,12.29l17.7 -10.09 17.71 -10.09c-12.01,-21.03 -34.04,-32.89 -56.61,-32.87 -10.93,0 -22.11,2.8 -32.24,8.58l-233.21 133.07c-21.03,11.98 -32.89,34.02 -32.85,56.58 -0.01,10.95 2.78,22.12 8.56,32.25 12,21.03 34.02,32.86 56.62,32.85 10.93,0 22.1,-2.8 32.24,-8.59l233.19 -133.05c21.02,-12.01 32.9,-34.02 32.86,-56.61 0,-10.94 -2.79,-22.11 -8.56,-32.22l-17.71 10.09z"/>
    <path class="fil9" d="M2032.9 764.21c-6.38,-0.04 -12.57,-2.47 -17.17,-7l274 -156.32c0.48,1.92 0.72,3.87 0.72,5.83 -0.04,8.52 -4.41,16.7 -12.32,21.22l-233.18 133.05c-3.87,2.2 -7.95,3.21 -12.05,3.23z"/>
    <path class="fil10" d="M2033.07 784.54c-13.43,0 -26.55,-6.11 -35.22,-17.1l17.89 -10.22c4.59,4.53 10.79,6.96 17.17,7 4.1,-0.02 8.18,-1.03 12.05,-3.23l233.18 -133.05c7.91,-4.52 12.28,-12.69 12.32,-21.22 0,-1.96 -0.24,-3.91 -0.72,-5.83l17.91 -10.21c7.88,20.3 0.09,43.82 -19.41,54.96l-233.19 133.05c-6.97,3.97 -14.52,5.85 -21.97,5.85z"/>
   </g>
   <path class="fil13" d="M-0 5099.37c0,-59.64 11.24,-118.13 33.72,-175.46 22.48,-57.34 55.28,-109.41 98.4,-156.19 43.12,-46.79 95.65,-84.18 157.57,-112.16 61.93,-27.98 131.89,-41.98 209.87,-41.98 93.58,0 175.23,19.5 244.95,58.49 69.72,38.99 121.56,90.6 155.51,154.82l-205.05 145.87c-11.93,-32.11 -29.12,-56.88 -51.6,-74.31 -22.48,-17.44 -46.79,-29.59 -72.94,-36.48 -26.14,-6.88 -51.6,-10.32 -76.37,-10.32 -38.53,0 -71.79,7.57 -99.77,22.7 -27.98,15.15 -50.92,35.1 -68.81,59.86 -17.89,24.77 -31.19,52.29 -39.91,82.58 -8.72,30.27 -13.07,60.55 -13.07,90.82 0,33.95 5.04,66.51 15.14,97.71 10.09,31.19 24.77,58.95 44.03,83.25 19.27,24.31 42.89,43.35 70.87,57.11 27.98,13.76 59.4,20.65 94.26,20.65 24.77,0 50,-3.9 75.69,-11.7 25.69,-7.79 49.09,-20.41 70.18,-37.84 21.1,-17.43 37.16,-40.83 48.17,-70.18l218.8 130.74c-19.26,47.7 -51.38,88.53 -96.33,122.48 -44.95,33.94 -95.87,59.86 -152.75,77.75 -56.89,17.89 -113.31,26.84 -169.27,26.84 -72.47,0 -138.76,-14.45 -198.85,-43.35 -60.1,-28.9 -111.93,-67.43 -155.51,-115.6 -43.58,-48.16 -77.29,-102.3 -101.15,-162.38 -23.86,-60.1 -35.78,-121.33 -35.78,-183.71z"/>
   <path id="_1" class="fil13" d="M1336.24 5611.3c-64.22,0 -121.1,-9.86 -170.64,-29.81 -49.54,-19.73 -91.05,-47.02 -124.54,-81.88 -33.48,-34.63 -58.71,-74.08 -75.69,-118.35 -16.97,-44.27 -25.45,-90.82 -25.45,-139.45 0,-48.63 8.48,-95.41 25.45,-140.14 16.98,-44.73 42.21,-84.18 75.69,-118.35 33.49,-34.41 75,-61.47 124.54,-81.19 49.54,-19.95 106.42,-29.81 170.64,-29.81 65.13,0 122.24,9.86 171.33,29.81 49.09,19.72 90.37,46.78 123.85,81.19 33.49,34.17 58.72,73.62 75.69,118.35 16.97,44.73 25.45,91.51 25.45,140.14 0,48.63 -8.48,95.18 -25.45,139.45 -16.97,44.27 -42.2,83.72 -75.69,118.35 -33.48,34.87 -74.76,62.15 -123.85,81.88 -49.09,19.95 -106.2,29.81 -171.33,29.81zm-127.99 -369.49c0,30.73 5.5,57.57 16.51,80.04 11.01,22.26 26.15,39.45 45.42,51.38 19.26,11.93 41.28,17.9 66.06,17.9 24.76,0 46.78,-5.97 66.06,-17.9 19.26,-11.93 34.4,-29.12 45.41,-51.38 11.01,-22.47 16.51,-49.31 16.51,-80.04 0,-30.73 -5.5,-57.57 -16.51,-80.05 -11.01,-22.25 -26.15,-39.45 -45.41,-51.37 -19.27,-11.93 -41.29,-17.9 -66.06,-17.9 -24.77,0 -46.79,5.97 -66.06,17.9 -19.27,11.92 -34.41,29.12 -45.42,51.37 -11.01,22.48 -16.51,49.32 -16.51,80.05z"/>
   <path id="_2" class="fil13" d="M1819.27 4592.95l261.46 0 0 716.96c0,26.61 5.73,47.02 17.2,61.25 11.47,14.22 28.21,21.33 50.23,21.33 11.01,0 22.94,-1.83 35.78,-5.51 12.84,-3.67 24.77,-8.71 35.78,-15.14l33.02 192.67c-31.19,14.68 -66.28,26.14 -105.27,34.4 -38.99,8.26 -75.92,12.39 -110.78,12.39 -69.72,0 -123.39,-18.12 -161.01,-54.36 -37.62,-36.23 -56.42,-87.84 -56.42,-154.82l0 -809.17z"/>
   <path id="_3" class="fil13" d="M2307.8 4592.95l261.46 0 0 716.96c0,26.61 5.73,47.02 17.2,61.25 11.47,14.22 28.21,21.33 50.23,21.33 11.01,0 22.94,-1.83 35.78,-5.51 12.84,-3.67 24.77,-8.71 35.78,-15.14l33.02 192.67c-31.19,14.68 -66.28,26.14 -105.27,34.4 -38.99,8.26 -75.92,12.39 -110.78,12.39 -69.72,0 -123.39,-18.12 -161.01,-54.36 -37.62,-36.23 -56.42,-87.84 -56.42,-154.82l0 -809.17z"/>
   <path id="_4" class="fil13" d="M3158.26 5611.3c-63.31,0 -119.72,-9.64 -169.27,-29.13 -49.54,-19.5 -91.05,-45.87 -124.54,-79.36 -33.48,-33.48 -58.95,-71.78 -76.37,-115.13 -17.43,-43.35 -26.15,-88.99 -26.15,-136.93 0,-68.58 15.14,-131.42 45.41,-188.53 30.28,-57.34 74.77,-103.21 133.49,-137.85 58.72,-34.63 131.19,-52.06 217.44,-52.06 86.23,0 158.71,17.2 217.43,51.6 58.71,34.17 103.21,79.36 133.49,135.55 30.27,55.96 45.41,116.97 45.41,182.8 0,13.53 -0.68,27.29 -2.06,41.52 -1.38,13.99 -2.98,26.37 -4.82,37.15l-507.8 0c1.83,24.31 8.94,44.27 21.33,59.4 12.39,15.37 27.98,26.38 46.78,33.26 18.81,7.11 38.31,10.55 58.49,10.55 28.44,0 55.28,-6.42 80.51,-19.26 25.23,-12.84 41.97,-30.74 50.23,-53.67l221.56 63.3c-19.27,38.53 -46.1,72.48 -80.51,101.84 -34.4,29.36 -75,52.52 -121.79,69.5 -46.78,16.97 -99.54,25.45 -158.25,25.45zm-123.86 -447.24l239.45 0c-2.75,-22.48 -9.4,-41.29 -19.95,-56.89 -10.55,-15.59 -24.31,-27.52 -41.28,-36.23 -16.97,-8.49 -36.47,-12.84 -58.49,-12.84 -22.01,0 -41.51,4.35 -58.49,12.84 -16.97,8.71 -30.73,20.64 -41.28,36.23 -10.54,15.59 -17.19,34.41 -19.95,56.89z"/>
   <path id="_5" class="fil13" d="M3917.9 5611.3c-46.79,0 -89.68,-9.18 -128.67,-27.52 -38.99,-18.35 -72.25,-44.27 -99.77,-77.29 -27.52,-33.03 -48.86,-71.57 -64,-115.82 -15.14,-44.04 -22.7,-91.98 -22.7,-143.36 0,-54.13 8.26,-104.13 24.77,-149.54 16.51,-45.64 39.67,-85.32 69.5,-119.27 29.81,-33.94 65.36,-60.32 106.65,-78.67 41.28,-18.35 86.7,-27.52 136.24,-27.52 51.38,0 97.02,9.86 136.93,29.58 39.91,19.73 71.33,49.32 94.27,88.77l0 -107.34 227.06 0 0 651.6c0,74.54 -18.35,139.45 -55.04,194.95 -36.7,55.51 -88.08,98.4 -154.13,128.9 -66.06,30.51 -143.12,45.64 -231.19,45.64 -76.15,0 -142.89,-11.93 -200.23,-35.78 -57.34,-23.85 -108.02,-58.25 -152.06,-103.2l137.62 -143.12c26.61,24.77 58.49,45.64 95.64,62.61 37.16,16.97 76.84,25.45 119.04,25.45 32.11,0 61.7,-5.27 88.76,-15.59 27.06,-10.55 48.85,-27.29 65.36,-50.23 16.52,-23.16 24.77,-56.2 24.77,-99.31l0 -46.78c-20.18,37.61 -50.23,65.82 -90.14,84.63 -39.91,18.81 -82.8,28.21 -128.67,28.21zm93.58 -206.42c12.84,0 25,-1.61 36.47,-4.82 11.47,-3.22 22.25,-7.8 32.34,-13.76 10.09,-5.97 19.95,-14 29.59,-23.63 9.63,-9.63 18.58,-20.41 26.83,-32.33l0 -130.05c-8.25,-22.01 -19.72,-41.28 -34.4,-57.34 -14.69,-16.05 -30.74,-28.67 -48.17,-37.38 -17.43,-8.72 -35.32,-13.08 -53.67,-13.08 -18.35,0 -35.55,4.13 -51.6,12.39 -16.06,8.26 -30.05,20.19 -41.98,35.32 -11.93,15.14 -21.1,32.56 -27.52,51.84 -6.43,19.26 -9.64,40.13 -9.64,62.15 0,22.25 3.44,42.42 10.32,60.78 6.89,18.58 16.75,34.4 29.59,47.7 12.84,13.3 27.98,23.86 45.42,31.2 17.43,7.33 36.23,11.01 56.42,11.01z"/>
   <path id="_6" class="fil13" d="M4886.71 5611.3c-63.31,0 -119.72,-9.64 -169.27,-29.13 -49.54,-19.5 -91.05,-45.87 -124.54,-79.36 -33.48,-33.48 -58.95,-71.78 -76.37,-115.13 -17.43,-43.35 -26.15,-88.99 -26.15,-136.93 0,-68.58 15.14,-131.42 45.41,-188.53 30.28,-57.34 74.77,-103.21 133.49,-137.85 58.72,-34.63 131.19,-52.06 217.44,-52.06 86.23,0 158.71,17.2 217.43,51.6 58.71,34.17 103.21,79.36 133.49,135.55 30.27,55.96 45.41,116.97 45.41,182.8 0,13.53 -0.68,27.29 -2.06,41.52 -1.38,13.99 -2.98,26.37 -4.82,37.15l-507.8 0c1.83,24.31 8.94,44.27 21.33,59.4 12.39,15.37 27.98,26.38 46.78,33.26 18.81,7.11 38.31,10.55 58.49,10.55 28.44,0 55.28,-6.42 80.51,-19.26 25.23,-12.84 41.97,-30.74 50.23,-53.67l221.56 63.3c-19.27,38.53 -46.1,72.48 -80.51,101.84 -34.4,29.36 -75,52.52 -121.79,69.5 -46.78,16.97 -99.54,25.45 -158.25,25.45zm-123.86 -447.24l239.45 0c-2.75,-22.48 -9.4,-41.29 -19.95,-56.89 -10.55,-15.59 -24.31,-27.52 -41.28,-36.23 -16.97,-8.49 -36.47,-12.84 -58.49,-12.84 -22.01,0 -41.51,4.35 -58.49,12.84 -16.97,8.71 -30.73,20.64 -41.28,36.23 -10.54,15.59 -17.19,34.41 -19.95,56.89z"/>
   <polygon id="_7" class="fil14" points="5840.37,4620.47 5995.88,4620.47 5908.95,5029.18 6365.83,5029.18 6452.76,4620.47 6606.88,4620.47 6399.09,5597.53 6244.95,5597.53 6336.47,5166.8 5879.6,5166.8 5788.08,5597.53 5632.58,5597.53 "/>
   <path id="_8" class="fil14" d="M6800.92 5611.3c-111.92,0 -167.88,-59.17 -167.88,-177.52 0,-16.51 1.14,-33.95 3.44,-52.53 2.29,-18.8 5.73,-38.99 10.32,-60.78l94.95 -437.15 150 0 -88.07 406.42c-6.43,30.73 -9.64,58.03 -9.64,81.65 0,73.62 31.65,110.55 94.95,110.55 26.61,0 53.44,-5.96 80.51,-17.65 27.06,-11.7 53.67,-29.13 79.82,-52.29 26.14,-22.94 49.31,-50.92 69.49,-83.49l94.95 -445.17 151.38 0 -114.22 535.78c-0.92,4.58 -1.83,8.48 -2.75,11.47 -0.92,3.21 -1.38,6.18 -1.38,8.94 0,18.12 10.55,27.75 31.65,28.66l-26.15 129.36c-13.76,1.83 -25.69,3.44 -35.77,4.82 -10.09,1.38 -19.27,2.07 -27.53,2.07 -27.52,0 -49.08,-5.97 -64.67,-17.66 -15.6,-11.93 -23.4,-28.9 -23.4,-50.69 0,-4.58 0.46,-10.08 1.38,-16.97 0.92,-6.88 2.29,-15.59 4.13,-25.91 1.83,-10.55 4.13,-23.86 6.89,-40.37 -41.28,51.84 -88.99,91.29 -143.12,118.12 -54.13,26.84 -110.55,40.37 -169.27,40.37z"/>
   <path id="_9" class="fil14" d="M7775.23 5611.3c-55.04,0 -100.46,-13.07 -136.24,-39.45 -35.78,-26.37 -61.47,-61 -77.07,-103.67l-27.52 129.36 -133.49 0 213.3 -1004.58 151.37 0 -88.07 426.61c34.86,-44.5 75.68,-80.27 122.48,-107.11 46.78,-26.83 95.87,-40.13 147.25,-40.13 52.29,0 95.87,13.3 130.74,40.13 34.86,26.84 61.24,62.15 79.12,105.74 17.89,43.58 26.84,91.28 26.84,143.11 0,61.01 -11.24,118.35 -33.72,172.48 -22.48,54.13 -53.21,102.06 -92.2,143.81 -38.99,41.97 -82.8,74.54 -131.43,98.16 -48.62,23.62 -99.08,35.55 -151.37,35.55zm-8.26 -129.36c33.03,0 64.91,-8.03 95.65,-23.85 30.73,-15.83 58.25,-37.39 82.57,-64.91 24.31,-27.75 43.58,-58.95 57.8,-93.8 14.22,-34.63 21.33,-71.11 21.33,-109.17 0,-33.49 -5.97,-64.46 -17.9,-92.89 -11.93,-28.44 -28.9,-51.6 -50.91,-69.26 -22.02,-17.66 -49.54,-26.38 -82.58,-26.38 -27.52,0 -55.27,6.89 -83.25,20.87 -27.98,14 -53.9,32.57 -77.76,55.51 -23.86,23.16 -44.95,48.62 -63.3,76.6l-41.29 188.07c1.84,26.15 10.09,49.78 24.77,70.87 14.68,21.33 33.72,37.85 57.11,50 23.4,12.15 49.31,18.35 77.75,18.35z"/>
  </g>
 </g>
</svg>
