<?xml version="1.0" encoding="UTF-8"?>
<!DOCTYPE svg PUBLIC "-//W3C//DTD SVG 1.1//EN" "http://www.w3.org/Graphics/SVG/1.1/DTD/svg11.dtd">
<!-- Creator: CorelDRAW 2021 (64-Bit) -->
<svg xmlns="http://www.w3.org/2000/svg" xml:space="preserve" width="138.479mm" height="25.3997mm" version="1.1" style="shape-rendering:geometricPrecision; text-rendering:geometricPrecision; image-rendering:optimizeQuality; fill-rule:evenodd; clip-rule:evenodd"
viewBox="0 0 13558.9 2486.97"
 xmlns:xlink="http://www.w3.org/1999/xlink"
 xmlns:xodm="http://www.corel.com/coreldraw/odm/2003">
 <defs>
  <style type="text/css">
   <![CDATA[
    .fil5 {fill:#EA5E20;fill-rule:nonzero}
    .fil6 {fill:#D65221;fill-rule:nonzero}
    .fil11 {fill:#C64D20;fill-rule:nonzero}
    .fil3 {fill:#CEE6EC;fill-rule:nonzero}
    .fil2 {fill:#A2D2D9;fill-rule:nonzero}
    .fil4 {fill:#49BBBD;fill-rule:nonzero}
    .fil8 {fill:#355B74;fill-rule:nonzero}
    .fil9 {fill:#2F5065;fill-rule:nonzero}
    .fil0 {fill:#008A98;fill-rule:nonzero}
    .fil1 {fill:#254969;fill-rule:nonzero}
    .fil10 {fill:#23415B;fill-rule:nonzero}
    .fil7 {fill:#28425B;fill-rule:nonzero}
    .fil12 {fill:#273E55;fill-rule:nonzero}
    .fil14 {fill:black;fill-rule:nonzero}
    .fil13 {fill:#FF0B80;fill-rule:nonzero}
   ]]>
  </style>
 </defs>
 <g id="Layer_x0020_1">
  <metadata id="CorelCorpID_0Corel-Layer"/>
  <g id="_2080743710128">
   <polygon class="fil0" points="659.2,2108.79 3182.39,2108.79 3182.39,528.96 659.2,528.96 "/>
   <polygon class="fil1" points="3182.39,2108.79 3182.39,2094.3 673.69,2094.3 673.69,543.45 3167.89,543.45 3167.89,2108.79 3182.39,2108.79 3182.39,2094.3 3182.39,2108.79 3196.89,2108.79 3196.89,514.46 644.7,514.46 644.7,2123.29 3196.89,2123.29 3196.89,2108.79 "/>
   <polygon class="fil2" points="750.11,2002.04 3091.47,2002.04 3091.47,710.81 750.11,710.81 "/>
   <polygon class="fil1" points="3091.47,2002.04 3091.47,1987.54 764.61,1987.54 764.61,725.3 3076.97,725.3 3076.97,2002.04 3091.47,2002.04 3091.47,1987.54 3091.47,2002.04 3105.96,2002.04 3105.96,696.31 735.63,696.31 735.63,2016.53 3105.96,2016.53 3105.96,2002.04 "/>
   <path class="fil3" d="M787.92 1967.44l0 -954.36c66.74,-30 154.48,-56.47 256.17,-56.47 0.01,0 0.03,0 0.05,0 58.21,0 121.05,8.65 187.34,30.32l11.76 3.84 2.92 -12.01c22.78,-93.45 62.55,-168.66 107.72,-228.43l1683.81 0 -2249.77 1217.11z"/>
   <path class="fil4" d="M407.47 2110.92c2.29,130.08 59.54,234.42 130.3,234.42l2766.08 0c70.74,0 128.01,-104.35 130.28,-234.42l-3026.66 0z"/>
   <path class="fil1" d="M407.47 2110.92l-14.49 0.25c1.21,67.11 16.41,127.74 41.28,172.77 12.47,22.49 27.41,41.16 44.78,54.56 17.31,13.36 37.41,21.36 58.74,21.34l2766.08 0c21.31,0.03 41.41,-7.98 58.72,-21.34 26.03,-20.12 46.7,-51.97 61.55,-91.12 14.8,-39.19 23.62,-85.88 24.51,-136.21l0.25 -14.75 -3056.16 0 0.25 14.75 14.49 -0.25 0 14.5 3026.66 0 0 -14.5 -14.49 -0.25c-1.07,62.97 -15.65,119.55 -37.66,159.23 -10.98,19.85 -23.76,35.39 -37.1,45.63 -13.4,10.26 -26.98,15.3 -41.04,15.32l-2766.08 0c-14.06,-0.02 -27.65,-5.06 -41.06,-15.32 -20.03,-15.32 -38.71,-42.75 -52.12,-78.39 -13.46,-35.6 -21.82,-79.23 -22.63,-126.46l-14.5 0.25 0 14.5 0 -14.5z"/>
   <path class="fil0" d="M2854.05 2220.31c0,31.78 -25.76,57.54 -57.53,57.54 -31.78,0 -57.53,-25.76 -57.53,-57.54 0,-31.79 25.75,-57.53 57.53,-57.53 31.77,0 57.53,25.74 57.53,57.53z"/>
   <path class="fil1" d="M2854.05 2220.31l-14.49 0c-0.01,11.93 -4.8,22.6 -12.61,30.44 -7.83,7.81 -18.51,12.6 -30.43,12.6 -11.95,0 -22.61,-4.79 -30.43,-12.6 -7.81,-7.84 -12.59,-18.51 -12.6,-30.44 0.01,-11.94 4.79,-22.61 12.6,-30.43 7.82,-7.81 18.49,-12.59 30.43,-12.6 11.93,0.01 22.6,4.79 30.43,12.6 7.81,7.83 12.6,18.5 12.61,30.43l28.99 0c-0.01,-39.79 -32.25,-72.02 -72.03,-72.02 -39.79,0 -72.02,32.24 -72.02,72.02 0,39.78 32.22,72.02 72.02,72.02 39.79,0 72.02,-32.24 72.03,-72.02l-14.5 0z"/>
   <path class="fil0" d="M3086.39 2220.31c0,31.78 -25.75,57.54 -57.54,57.54 -31.78,0 -57.53,-25.76 -57.53,-57.54 0,-31.79 25.75,-57.53 57.53,-57.53 31.79,0 57.54,25.74 57.54,57.53z"/>
   <path class="fil1" d="M3086.39 2220.31l-14.5 0c0,11.94 -4.79,22.6 -12.6,30.44 -7.83,7.81 -18.5,12.6 -30.44,12.6 -11.93,0 -22.6,-4.79 -30.43,-12.6 -7.81,-7.84 -12.6,-18.51 -12.61,-30.44 0.01,-11.94 4.8,-22.61 12.61,-30.43 7.83,-7.8 18.51,-12.59 30.43,-12.6 11.95,0.01 22.62,4.8 30.44,12.6 7.81,7.82 12.6,18.5 12.6,30.43l28.99 0c0,-39.79 -32.24,-72.02 -72.03,-72.02 -39.79,0 -72.02,32.23 -72.03,72.02 0.01,39.78 32.24,72.02 72.03,72.02 39.8,0 72.03,-32.24 72.03,-72.02l-14.49 0z"/>
   <path class="fil2" d="M1978.34 621.15c0,31.78 -25.76,57.54 -57.53,57.54 -31.78,0 -57.54,-25.76 -57.54,-57.54 0,-31.78 25.76,-57.53 57.54,-57.53 31.77,0 57.53,25.75 57.53,57.53z"/>
   <path class="fil1" d="M1978.34 621.15l-14.5 0c0,11.95 -4.79,22.61 -12.6,30.44 -7.82,7.81 -18.5,12.6 -30.43,12.6 -11.94,0 -22.61,-4.79 -30.44,-12.6 -7.81,-7.83 -12.6,-18.5 -12.6,-30.44 0,-11.93 4.79,-22.61 12.6,-30.43 7.83,-7.81 18.51,-12.6 30.44,-12.61 11.94,0.01 22.61,4.8 30.43,12.61 7.81,7.82 12.6,18.51 12.6,30.43l29 0c-0.01,-39.79 -32.24,-72.02 -72.03,-72.03 -39.8,0.01 -72.03,32.24 -72.04,72.03 0.01,39.8 32.24,72.03 72.04,72.03 39.79,0 72.02,-32.23 72.03,-72.03l-14.5 0z"/>
   <polygon class="fil0" points="1601.14,2209.66 2240.46,2209.66 2240.46,2115.89 1601.14,2115.89 "/>
   <polygon class="fil1" points="2240.46,2209.66 2240.46,2195.16 1615.63,2195.16 1615.63,2130.38 2225.96,2130.38 2225.96,2209.66 2240.46,2209.66 2240.46,2195.16 2240.46,2209.66 2254.95,2209.66 2254.95,2101.38 1586.64,2101.38 1586.64,2224.15 2254.95,2224.15 2254.95,2209.66 "/>
   <path class="fil5" d="M157.14 1376.88l-67.65 -0.63 -10.7 -433.54c-42.22,-74 -16.36,-168.55 57.64,-210.78l625.94 -357.13c76.51,-43.65 153.84,-42.12 179.9,3.52l29.66 51.99 -56.14 32.03 -29.67 -51.99c-5.6,-5.02 -42.94,-7.2 -91.7,20.61l-625.95 357.13c-43.03,24.56 -58.06,79.54 -33.52,122.58l22.19 466.2z"/>
   <path class="fil1" d="M157.14 1376.88l0.11 -11.45 -56.58 -0.53 -10.5 -425.36 -1.43 -2.5c-12.74,-22.34 -18.77,-46.62 -18.78,-70.64 0.02,-49.77 25.94,-98.17 72.14,-124.52l625.95 -357.12c35.71,-20.41 71.41,-30.29 100.46,-30.26 15.38,-0.01 28.82,2.73 39.54,7.75 10.75,5.05 18.8,12.2 24.28,21.74l23.98 42.04 -36.27 20.7 -24.9 -43.67 -1.39 -1.23c-1.96,-1.72 -3.73,-2.58 -5.46,-3.29 -5.1,-1.98 -10.68,-2.65 -17.95,-2.7 -18.73,0.02 -47.67,5.87 -81.59,25.18l-625.95 357.12c-32.72,18.68 -51.1,52.96 -51.08,88.14 -0.01,17 4.29,34.27 13.29,50.05l9.95 -5.67 -11.44 0.54 22.19 466.21 11.44 -0.55 0.11 -11.45 -0.11 11.45 11.44 -0.54 -22.32 -468.97 -1.36 -2.38c-6.98,-12.25 -10.28,-25.54 -10.28,-38.71 0.01,-27.3 14.21,-53.81 39.54,-68.26l625.94 -357.12c30.63,-17.51 56.23,-22.21 70.25,-22.18 3.54,-0.01 6.32,0.31 7.97,0.67l1.44 0.38 0.68 -1.66 -0.9 1.55 0.23 0.12 0.68 -1.66 -0.9 1.55 3.15 -5.47 -4.21 4.69 1.06 0.78 3.15 -5.47 -4.21 4.69 7.65 -8.53 -9.95 5.68 35.34 61.93 76.03 -43.38 -35.32 -61.93c-7.92,-13.93 -20.04,-24.42 -34.47,-31.14 -14.46,-6.75 -31.19,-9.91 -49.24,-9.92 -34.11,0.04 -73.17,11.25 -111.82,33.27l-625.93 357.12c-53.61,30.6 -83.71,86.74 -83.7,144.4 0,27.87 7.03,56.13 21.79,81.98l9.94 -5.67 -11.45 0.28 10.98 444.6 90.83 0.84 -0.58 -12.1 -11.44 0.54z"/>
   <path class="fil6" d="M145.07 1364.03l-21.97 0 -20.29 -466.21c-24.56,-43.03 -9.52,-98.02 33.52,-122.57l625.95 -357.13c11.29,-6.44 21.96,-11.27 31.78,-14.83 -1.44,3.97 -2.17,8.18 -2.16,12.42 -0.01,1.16 0.06,2.32 0.16,3.49 -1.1,0.6 -2.19,1.21 -3.3,1.84l-625.95 357.12c-32.72,18.68 -51.1,52.96 -51.08,88.14 -0.01,16.13 3.85,32.48 11.93,47.58l21.42 450.17z"/>
   <path class="fil7" d="M146.75 1364.03l-1.68 0 -21.42 -450.17c-8.08,-15.1 -11.94,-31.45 -11.93,-47.58 -0.02,-35.18 18.36,-69.46 51.08,-88.14l625.95 -357.12c1.11,-0.63 2.2,-1.24 3.3,-1.84 0.38,3.86 1.37,7.73 3.02,11.42 -0.21,0.12 -0.42,0.24 -0.65,0.36l-625.95 357.13c-43.03,24.56 -58.06,79.54 -33.52,122.58l11.8 453.36z"/>
   <path class="fil8" d="M1607.9 537.51c0,0 -292.01,106.7 -372.87,438.53 -338.89,-110.79 -592.2,112.07 -592.2,112.07l-202.31 -354.61 965.06 -550.61 202.32 354.61z"/>
   <path class="fil1" d="M1607.9 537.51l-3.93 -10.75c-0.81,0.31 -74.9,27.43 -159.44,96.73 -84.5,69.24 -179.5,181.04 -220.62,349.84l11.11 2.71 3.56 -10.88c-68.64,-22.44 -133.97,-31.46 -194.46,-31.46 -121.73,0.01 -223.78,36.39 -295.38,72.72 -71.64,36.34 -112.95,72.64 -113.48,73.09l7.56 8.6 9.95 -5.67 -196.65 -344.67 945.19 -539.25 196.65 344.65 9.94 -5.67 -3.93 -10.75 3.93 10.75 9.94 -5.67 -207.99 -364.56 -984.96 561.95 214.95 376.75 10.55 -9.27 0.38 -0.32c4.35,-3.74 46,-38.83 114.91,-72.85 68.94,-34.02 165.01,-66.94 278.46,-66.93 58.21,0 121.05,8.65 187.34,30.32l11.76 3.84 2.92 -12.01c39.75,-163.03 131.17,-270.5 212.9,-337.57 40.84,-33.5 79.24,-56.82 107.32,-71.7 14.04,-7.45 25.52,-12.8 33.42,-16.26 3.96,-1.72 7.01,-2.99 9.06,-3.8 1.03,-0.41 1.79,-0.7 2.3,-0.9l0.68 -0.25 12.73 -4.66 -6.72 -11.77 -9.94 5.67z"/>
   <path class="fil9" d="M646.09 1070.71l-159.11 -278.86 485.99 -277.27 254.26 445.66c-0.11,0.41 -0.21,0.82 -0.31,1.23 -64.4,-19.75 -125.73,-27.77 -182.78,-27.77 -121.73,0.01 -223.78,36.39 -295.38,72.72 -50.54,25.63 -85.99,51.25 -102.66,64.28z"/>
   <path class="fil10" d="M642.83 1088.12l-165.79 -290.59 9.94 -5.68 159.11 278.86c16.67,-13.03 52.12,-38.65 102.66,-64.28 71.6,-36.33 173.66,-72.71 295.38,-72.72 57.05,0 118.39,8.02 182.78,27.77 0.11,-0.41 0.21,-0.82 0.31,-1.23l8.19 14.33 -0.39 1.47c-67.47,-22.06 -131.54,-30.89 -190.89,-30.89 -238.81,0 -401.31,142.96 -401.31,142.96z"/>
   <path class="fil5" d="M61.61 1490.98c-0.43,46.66 -46.97,232.22 -46.97,232.22l178.83 1.65c0,0 -23.84,-141.57 -23.01,-232.87 0.41,-44.37 -23.63,-80.56 -53.69,-80.85 -30.06,-0.27 -54.75,35.46 -55.16,79.84z"/>
   <path class="fil1" d="M61.61 1490.98l-11.46 -0.1c-0.05,10.04 -2.93,30.36 -7.32,53.99 -6.57,35.6 -16.41,79.57 -24.59,114.55 -4.09,17.5 -7.77,32.75 -10.43,43.64 -2.65,10.88 -4.28,17.34 -4.28,17.36l-3.53 14.09 207.03 1.91 -2.28 -13.47c0,0 -0.34,-2.09 -0.97,-5.97 -4.39,-27.11 -21.93,-141.76 -21.89,-220.21 0,-1.59 0,-3.13 0.02,-4.66l0 -0.02 0 -1.23c-0.02,-24.01 -6.44,-45.93 -17.61,-62.59 -5.6,-8.31 -12.43,-15.34 -20.44,-20.4 -7.98,-5.06 -17.23,-8.09 -26.97,-8.17l-0.46 -0.01c-9.76,-0.01 -19.07,2.96 -27.14,7.97 -12.14,7.55 -21.7,19.47 -28.4,33.79 -6.69,14.35 -10.55,31.27 -10.72,49.43l11.46 0.1 11.45 0.12c0.16,-20.02 5.9,-37.92 14.33,-50.13 4.2,-6.11 9.02,-10.79 13.94,-13.83 4.94,-3.05 9.91,-4.53 15.09,-4.54l0.24 0c5.17,0.05 10.09,1.58 14.96,4.64 7.28,4.55 14.27,12.85 19.29,23.93 5.03,11.07 8.11,24.8 8.1,39.68l0 1.04 0 -0.02c-0.02,1.64 -0.02,3.26 -0.02,4.9 0,46.6 5.82,103.87 11.6,149.74 5.79,45.83 11.56,80.14 11.58,80.24l11.29 -1.89 0.11 -11.46 -178.83 -1.64 -0.11 11.45 11.1 2.79c0.02,-0.06 11.66,-46.52 23.39,-98.9 5.87,-26.19 11.74,-53.88 16.2,-78.06 4.46,-24.29 7.55,-44.66 7.72,-57.94l-11.45 -0.12z"/>
   <path class="fil6" d="M180.01 1713.28l-35.59 -0.31c-5.58,-35.51 -21.85,-145.73 -21.15,-221.41 0.2,-21.13 -5.17,-40.37 -14.08,-54.76l33.2 0.31c3.17,3.96 6.07,8.68 8.52,14.07 5.03,11.07 8.11,24.8 8.1,39.68l0 1.04 0 -0.02c-0.02,1.64 -0.02,3.26 -0.02,4.9 0,46.6 5.82,103.87 11.6,149.74 3.6,28.56 7.21,52.66 9.42,66.77z"/>
   <path class="fil7" d="M193.47 1724.86l-47.18 -0.43c0,0 -0.7,-4.14 -1.86,-11.47l35.59 0.31c-2.21,-14.11 -5.82,-38.21 -9.42,-66.77 -5.79,-45.87 -11.6,-103.14 -11.6,-149.74 0,-1.64 0,-3.26 0.02,-4.9l0 0.02 0 -1.04c0.01,-14.88 -3.06,-28.61 -8.1,-39.68 -2.45,-5.4 -5.35,-10.11 -8.52,-14.07l14.05 0.13c8.88,14.41 14.21,33.67 14.01,54.76 -0.83,91.29 23.01,232.87 23.01,232.87z"/>
   <path class="fil5" d="M168.19 1401.43c-0.12,13.51 -5.27,24.41 -11.49,24.36l-67.65 -0.65c-6.23,-0.05 -11.18,-11.03 -11.04,-24.55 0.12,-13.49 5.26,-24.4 11.49,-24.35l67.65 0.63c6.23,0.06 11.17,11.06 11.04,24.56z"/>
   <path class="fil1" d="M168.19 1401.43l-11.45 -0.09c-0.02,5.28 -1.17,10.02 -2.35,12.44l-0.74 1.33 -0.24 0.31 2 1.93 -1.21 -2.45 -0.78 0.52 2 1.93 -1.21 -2.45 2.57 5.15 0 -5.73c-1.03,-0.01 -2.01,0.28 -2.57,0.58l2.57 5.15 0 -5.73 -0.18 0 0.13 11.46 0.11 -11.46 -67.65 -0.63 -0.05 4.77 3.37 -3.66c-0.11,-0.16 -1.46,-1.13 -3.33,-1.11l-0.04 4.77 3.37 -3.66 -0.36 0.39 0.4 -0.36 -0.04 -0.03 -0.36 0.39 0.4 -0.36c-0.13,-0.06 -1.17,-1.66 -1.85,-4.18 -0.72,-2.49 -1.22,-5.87 -1.21,-9.52l0 -0.44c0.02,-5.3 1.17,-10.03 2.35,-12.46l0.74 -1.33 0.24 -0.31 -2.01 -1.94 1.22 2.47 0.78 -0.53 -2.01 -1.94 1.22 2.47 -2.57 -5.14 0 5.72c1.02,0.01 2,-0.29 2.57,-0.58l-2.57 -5.14 0 5.72 0.03 0 -0.02 -10.46 -0.38 10.45 0.4 0.01 -0.02 -10.46 -0.38 10.45 0.16 0.01 67.81 0.62 0.04 -4.78 -3.38 3.67c0.11,0.15 1.45,1.12 3.34,1.11l0.04 -4.78 -3.38 3.67 0.35 -0.39 -0.39 0.34 0.04 0.05 0.35 -0.39 -0.39 0.34c0.13,0.08 1.17,1.69 1.86,4.21 0.72,2.51 1.22,5.88 1.21,9.56l0 0.5 0 -0.09 11.45 0.09 11.45 0 0 -0.5c-0.03,-8.06 -1.38,-15.4 -4.25,-21.75 -1.47,-3.17 -3.33,-6.17 -6.16,-8.8 -2.75,-2.59 -7.01,-4.93 -11.97,-4.95l-67.65 -0.62 -0.11 11.44 0.43 -11.44 -0.48 0c-5.01,-0.03 -9.3,2.29 -12.09,4.88 -4.25,3.99 -6.5,8.67 -8.21,13.81 -1.64,5.16 -2.52,10.88 -2.58,17l0 -0.09 -0.01 0.74c0.03,8.05 1.39,15.39 4.27,21.73 1.47,3.17 3.33,6.15 6.16,8.8 2.76,2.58 7.03,4.91 11.97,4.93l67.75 0.63 0.12 0 -0.11 -9.64 -0.02 9.64 0.13 0 -0.11 -9.64 -0.02 9.64 0.06 0c5,0.02 9.29,-2.29 12.08,-4.89 4.25,-3.97 6.51,-8.65 8.21,-13.79 1.64,-5.16 2.53,-10.9 2.58,-17.02l0 -0.11 -11.45 0z"/>
   <path class="fil11" d="M153.82 1414.32l-23.91 -0.23c2.48,-2.66 4.16,-7.47 4.21,-12.96 0.05,-5.5 -1.54,-10.35 -3.98,-13.05l23.92 0.23c0.23,0.26 0.46,0.55 0.69,0.85 0.26,0.63 0.54,1.37 0.77,2.22 0.72,2.51 1.22,5.88 1.21,9.56l0 0.41c-0.02,5.05 -1.08,9.61 -2.19,12.1 -0.23,0.31 -0.47,0.61 -0.72,0.87zm2.92 -12.89l0 -0.09 0 0.09z"/>
   <path class="fil12" d="M149.35 1416.53c-0.02,0 -0.03,0 -0.04,0l-23.93 -0.23c0.02,0 0.04,0 0.05,0 1.64,0 3.17,-0.8 4.48,-2.21l23.91 0.23c-1.31,1.41 -2.84,2.21 -4.47,2.21zm5.2 -3.08c1.12,-2.5 2.17,-7.05 2.19,-12.1l0 -0.41c0.01,-3.67 -0.49,-7.05 -1.21,-9.56 -0.23,-0.85 -0.51,-1.6 -0.77,-2.22 2.04,2.81 3.33,7.23 3.28,12.19 -0.04,4.95 -1.41,9.33 -3.49,12.1zm2.19 -12.1l0 0.09 0 -0.09zm-2.67 -13.04l-23.92 -0.23c-1.29,-1.44 -2.83,-2.28 -4.47,-2.29l23.91 0.23c1.65,0.01 3.18,0.85 4.48,2.29z"/>
   <path class="fil8" d="M1651.01 42.88c17.04,29.87 6.65,67.9 -23.23,84.93l-1368.56 780.82c-29.87,17.04 -67.89,6.64 -84.93,-23.23 -17.04,-29.86 -6.65,-67.89 23.23,-84.94l1368.57 -780.81c29.86,-17.04 67.88,-6.63 84.92,23.23z"/>
   <path class="fil1" d="M1651.01 42.88l-9.95 5.68c4.55,7.98 6.69,16.59 6.7,25.12 -0.02,17.68 -9.2,34.82 -25.64,44.19l-1368.57 780.82c-7.97,4.53 -16.58,6.67 -25.11,6.68 -17.69,-0.02 -34.82,-9.19 -44.19,-25.64 -4.55,-7.98 -6.7,-16.59 -6.7,-25.11 0.02,-17.69 9.19,-34.82 25.64,-44.2l1368.57 -780.81c7.98,-4.54 16.58,-6.68 25.11,-6.68 17.68,0.01 34.82,9.18 44.19,25.62l9.95 -5.67 9.94 -5.67c-13.58,-23.81 -38.49,-37.21 -64.07,-37.2 -12.38,0 -24.98,3.15 -36.46,9.7l-1368.57 780.81c-23.81,13.6 -37.21,38.5 -37.19,64.08 -0.01,12.38 3.13,24.97 9.69,36.46 13.59,23.82 38.5,37.22 64.08,37.19 12.38,0 24.97,-3.13 36.46,-9.69l1368.57 -780.81c23.81,-13.6 37.21,-38.49 37.19,-64.07 0.01,-12.38 -3.13,-24.98 -9.7,-36.47l-9.94 5.67z"/>
   <path class="fil9" d="M228.43 905.36c-17.46,-0.02 -34.38,-8.96 -43.83,-25.02l1456.82 -831.15c4.31,7.79 6.33,16.18 6.33,24.48 -0.02,17.68 -9.2,34.82 -25.64,44.19l-1368.57 780.82c-7.97,4.53 -16.58,6.67 -25.11,6.68z"/>
   <path class="fil10" d="M228.46 916.81c-21.4,0 -42.2,-11.05 -53.77,-30.79l9.92 -5.67c9.45,16.06 26.37,25 43.83,25.02 8.54,-0.01 17.14,-2.14 25.11,-6.68l1368.57 -780.82c16.44,-9.37 25.62,-26.51 25.64,-44.19 -0.01,-8.3 -2.03,-16.68 -6.33,-24.48l9.92 -5.66c16.53,29.76 6.1,67.35 -23.56,84.26l-1368.56 780.82c-9.73,5.55 -20.32,8.19 -30.76,8.19z"/>
   <path class="fil8" d="M981.36 328.46c6.88,12.05 2.68,27.42 -9.38,34.3l-131.03 74.76c-12.06,6.87 -27.43,2.67 -34.31,-9.38 -6.87,-12.05 -2.67,-27.42 9.39,-34.3l131.02 -74.76c12.07,-6.88 27.43,-2.69 34.31,9.38z"/>
   <path class="fil1" d="M981.36 328.46l-9.95 5.67c1.24,2.17 1.8,4.46 1.81,6.76 -0.02,4.79 -2.48,9.39 -6.92,11.93l-131.02 74.76c-2.17,1.23 -4.46,1.8 -6.77,1.81 -4.81,-0.02 -9.4,-2.48 -11.93,-6.91 -1.23,-2.17 -1.8,-4.46 -1.8,-6.77 0.01,-4.79 2.47,-9.39 6.91,-11.92l131.03 -74.76c2.18,-1.24 4.46,-1.8 6.77,-1.8 4.79,0 9.39,2.46 11.92,6.9l9.95 -5.67 9.95 -5.68c-6.75,-11.81 -19.13,-18.48 -31.81,-18.47 -6.14,0 -12.42,1.58 -18.11,4.83l-131.03 74.77c-11.82,6.74 -18.48,19.11 -18.46,31.79 -0.01,6.15 1.56,12.42 4.81,18.11 6.74,11.81 19.12,18.47 31.81,18.46 6.14,0 12.42,-1.57 18.11,-4.82l131.02 -74.76c11.81,-6.75 18.49,-19.11 18.47,-31.81 0,-6.14 -1.57,-12.42 -4.81,-18.1l-9.95 5.68z"/>
   <path class="fil9" d="M828.51 429.38c-3.58,-0.02 -7.06,-1.39 -9.64,-3.94l153.95 -87.83c0.26,1.08 0.4,2.17 0.4,3.27 -0.02,4.79 -2.48,9.39 -6.92,11.93l-131.02 74.76c-2.17,1.23 -4.46,1.8 -6.77,1.81z"/>
   <path class="fil10" d="M828.6 440.8c-7.55,0 -14.91,-3.43 -19.79,-9.61l10.06 -5.75c2.58,2.55 6.06,3.92 9.64,3.94 2.3,-0.01 4.59,-0.58 6.77,-1.81l131.02 -74.76c4.45,-2.54 6.9,-7.14 6.92,-11.93 0,-1.1 -0.14,-2.19 -0.4,-3.27l10.07 -5.73c4.43,11.41 0.05,24.62 -10.91,30.87l-131.03 74.76c-3.91,2.22 -8.16,3.28 -12.35,3.28z"/>
  </g>
  <path class="fil13" d="M3857.6 1532.67c0,-70.69 13.33,-140.03 39.97,-208 26.64,-67.97 65.52,-129.69 116.64,-185.14 51.11,-55.47 113.37,-99.78 186.78,-132.96 73.41,-33.16 156.33,-49.75 248.77,-49.75 110.94,0 207.72,23.11 290.37,69.32 82.66,46.22 144.1,107.4 184.34,183.53l-243.07 172.91c-14.14,-38.07 -34.52,-67.43 -61.17,-88.09 -26.65,-20.66 -55.47,-35.07 -86.46,-43.23 -31,-8.16 -61.18,-12.23 -90.54,-12.23 -45.68,0 -85.1,8.97 -118.27,26.92 -33.17,17.94 -60.35,41.59 -81.56,70.96 -21.21,29.36 -36.98,61.99 -47.31,97.87 -10.33,35.89 -15.5,71.78 -15.5,107.67 0,40.24 5.98,78.85 17.95,115.82 11.96,36.98 29.36,69.88 52.2,98.7 22.84,28.82 50.85,51.38 84.02,67.7 33.16,16.31 70.41,24.47 111.74,24.47 29.36,0 59.27,-4.62 89.72,-13.86 30.45,-9.24 58.19,-24.19 83.2,-44.86 25.02,-20.66 44.05,-48.39 57.1,-83.2l259.37 154.98c-22.84,56.55 -60.9,104.94 -114.2,145.19 -53.28,40.24 -113.64,70.96 -181.07,92.17 -67.42,21.21 -134.31,31.81 -200.64,31.81 -85.92,0 -164.49,-17.13 -235.73,-51.38 -71.23,-34.26 -132.68,-79.94 -184.33,-137.03 -51.66,-57.09 -91.63,-121.26 -119.9,-192.49 -28.28,-71.24 -42.42,-143.83 -42.42,-217.78z"/>
  <path id="_1" class="fil13" d="M5441.59 2139.5c-76.13,0 -143.55,-11.69 -202.28,-35.35 -58.73,-23.38 -107.94,-55.73 -147.63,-97.06 -39.69,-41.06 -69.6,-87.82 -89.72,-140.29 -20.12,-52.47 -30.18,-107.67 -30.18,-165.31 0,-57.63 10.06,-113.1 30.18,-166.12 20.12,-53.01 50.02,-99.77 89.72,-140.29 39.69,-40.78 88.91,-72.87 147.63,-96.25 58.73,-23.65 126.15,-35.34 202.28,-35.34 77.21,0 144.91,11.69 203.09,35.34 58.19,23.38 107.13,55.47 146.82,96.25 39.69,40.52 69.61,87.28 89.72,140.29 20.12,53.02 30.19,108.49 30.19,166.12 0,57.64 -10.07,112.84 -30.19,165.31 -20.11,52.47 -50.02,99.24 -89.72,140.29 -39.69,41.33 -88.63,73.68 -146.82,97.06 -58.18,23.66 -125.88,35.35 -203.09,35.35zm-151.71 -438.01c0,36.43 6.52,68.25 19.57,94.89 13.05,26.38 30.99,46.76 53.83,60.9 22.83,14.14 48.94,21.21 78.3,21.21 29.36,0 55.47,-7.07 78.3,-21.21 22.84,-14.14 40.78,-34.52 53.83,-60.9 13.05,-26.64 19.57,-58.45 19.57,-94.89 0,-36.43 -6.52,-68.24 -19.57,-94.89 -13.05,-26.37 -30.99,-46.76 -53.83,-60.9 -22.83,-14.13 -48.94,-21.2 -78.3,-21.2 -29.36,0 -55.47,7.07 -78.3,21.2 -22.84,14.14 -40.78,34.53 -53.83,60.9 -13.05,26.65 -19.57,58.45 -19.57,94.89z"/>
  <path id="_2" class="fil13" d="M6014.17 932.35l309.94 0 0 849.9c0,31.54 6.8,55.74 20.39,72.59 13.6,16.86 33.45,25.29 59.54,25.29 13.05,0 27.19,-2.17 42.42,-6.53 15.23,-4.35 29.36,-10.33 42.42,-17.94l39.16 228.37c-36.98,17.41 -78.58,31 -124.8,40.79 -46.22,9.78 -89.99,14.68 -131.32,14.68 -82.65,0 -146.27,-21.48 -190.85,-64.44 -44.59,-42.95 -66.88,-104.13 -66.88,-183.52l0 -959.2z"/>
  <path id="_3" class="fil13" d="M6593.28 932.35l309.94 0 0 849.9c0,31.54 6.8,55.74 20.39,72.59 13.6,16.86 33.45,25.29 59.54,25.29 13.05,0 27.19,-2.17 42.42,-6.53 15.23,-4.35 29.36,-10.33 42.42,-17.94l39.16 228.37c-36.98,17.41 -78.58,31 -124.8,40.79 -46.22,9.78 -89.99,14.68 -131.32,14.68 -82.65,0 -146.27,-21.48 -190.85,-64.44 -44.59,-42.95 -66.88,-104.13 -66.88,-183.52l0 -959.2z"/>
  <path id="_4" class="fil13" d="M7601.42 2139.5c-75.04,0 -141.93,-11.42 -200.64,-34.52 -58.73,-23.12 -107.94,-54.38 -147.63,-94.08 -39.69,-39.69 -69.88,-85.1 -90.54,-136.48 -20.66,-51.39 -30.99,-105.49 -30.99,-162.32 0,-81.29 17.94,-155.79 53.83,-223.49 35.89,-67.97 88.63,-122.34 158.23,-163.4 69.61,-41.06 155.52,-61.71 257.75,-61.71 102.23,0 188.14,20.39 257.75,61.17 69.6,40.52 122.34,94.08 158.24,160.69 35.89,66.34 53.83,138.66 53.83,216.69 0,16.04 -0.82,32.35 -2.45,49.21 -1.64,16.59 -3.53,31.26 -5.71,44.04l-601.95 0c2.17,28.83 10.6,52.47 25.28,70.42 14.69,18.21 33.17,31.26 55.47,39.42 22.29,8.43 45.4,12.51 69.33,12.51 33.71,0 65.52,-7.62 95.43,-22.84 29.91,-15.23 49.76,-36.43 59.54,-63.61l262.64 75.03c-22.84,45.68 -54.65,85.92 -95.44,120.72 -40.78,34.81 -88.91,62.26 -144.36,82.38 -55.47,20.12 -118,30.18 -187.6,30.18zm-146.81 -530.17l283.84 0c-3.26,-26.64 -11.15,-48.94 -23.66,-67.42 -12.5,-18.49 -28.82,-32.62 -48.94,-42.96 -20.12,-10.06 -43.23,-15.23 -69.33,-15.23 -26.09,0 -49.21,5.17 -69.33,15.23 -20.11,10.34 -36.42,24.48 -48.94,42.96 -12.5,18.49 -20.39,40.78 -23.65,67.42z"/>
  <path id="_5" class="fil13" d="M8501.9 2139.5c-55.47,0 -106.31,-10.88 -152.53,-32.62 -46.22,-21.75 -85.64,-52.47 -118.27,-91.63 -32.62,-39.15 -57.92,-84.82 -75.85,-137.29 -17.95,-52.21 -26.92,-109.03 -26.92,-169.93 0,-64.16 9.78,-123.44 29.36,-177.27 19.57,-54.11 47.03,-101.13 82.37,-141.38 35.35,-40.24 77.49,-71.51 126.43,-93.25 48.94,-21.76 102.77,-32.62 161.5,-32.62 60.9,0 115.01,11.69 162.31,35.07 47.31,23.38 84.56,58.45 111.75,105.22l0 -127.25 269.16 0 0 772.42c0,88.37 -21.75,165.31 -65.25,231.1 -43.5,65.8 -104.4,116.63 -182.71,152.79 -78.3,36.16 -169.65,54.11 -274.06,54.11 -90.27,0 -169.38,-14.14 -237.35,-42.42 -67.97,-28.27 -128.06,-69.06 -180.26,-122.34l163.13 -169.65c31.54,29.36 69.32,54.11 113.37,74.22 44.04,20.12 91.08,30.19 141.1,30.19 38.07,0 73.14,-6.26 105.22,-18.5 32.09,-12.5 57.92,-32.35 77.49,-59.54 19.57,-27.45 29.36,-66.61 29.36,-117.72l0 -55.47c-23.93,44.59 -59.54,78.04 -106.85,100.33 -47.3,22.29 -98.15,33.44 -152.52,33.44zm110.93 -244.69c15.23,0 29.63,-1.9 43.23,-5.71 13.59,-3.81 26.37,-9.24 38.33,-16.31 11.96,-7.07 23.66,-16.59 35.07,-28 11.42,-11.42 22.02,-24.19 31.81,-38.33l0 -154.16c-9.79,-26.09 -23.38,-48.94 -40.78,-67.97 -17.4,-19.02 -36.43,-33.98 -57.1,-44.32 -20.66,-10.33 -41.87,-15.49 -63.61,-15.49 -21.76,0 -42.14,4.89 -61.18,14.68 -19.03,9.79 -35.61,23.93 -49.75,41.87 -14.14,17.95 -25.02,38.61 -32.62,61.45 -7.62,22.83 -11.43,47.58 -11.43,73.68 0,26.37 4.08,50.3 12.24,72.04 8.16,22.02 19.85,40.78 35.07,56.55 15.23,15.76 33.17,28.28 53.83,36.97 20.66,8.7 42.95,13.05 66.88,13.05z"/>
  <path id="_6" class="fil13" d="M9650.32 2139.5c-75.04,0 -141.93,-11.42 -200.64,-34.52 -58.73,-23.12 -107.94,-54.38 -147.63,-94.08 -39.69,-39.69 -69.88,-85.1 -90.54,-136.48 -20.66,-51.39 -30.99,-105.49 -30.99,-162.32 0,-81.29 17.94,-155.79 53.83,-223.49 35.89,-67.97 88.63,-122.34 158.23,-163.4 69.61,-41.06 155.52,-61.71 257.75,-61.71 102.23,0 188.14,20.39 257.75,61.17 69.6,40.52 122.34,94.08 158.24,160.69 35.89,66.34 53.83,138.66 53.83,216.69 0,16.04 -0.82,32.35 -2.45,49.21 -1.64,16.59 -3.53,31.26 -5.71,44.04l-601.95 0c2.17,28.83 10.6,52.47 25.28,70.42 14.69,18.21 33.17,31.26 55.47,39.42 22.29,8.43 45.4,12.51 69.33,12.51 33.71,0 65.52,-7.62 95.43,-22.84 29.91,-15.23 49.76,-36.43 59.54,-63.61l262.64 75.03c-22.84,45.68 -54.65,85.92 -95.44,120.72 -40.78,34.81 -88.91,62.26 -144.36,82.38 -55.47,20.12 -118,30.18 -187.6,30.18zm-146.81 -530.17l283.84 0c-3.26,-26.64 -11.15,-48.94 -23.66,-67.42 -12.5,-18.49 -28.82,-32.62 -48.94,-42.96 -20.12,-10.06 -43.23,-15.23 -69.33,-15.23 -26.09,0 -49.21,5.17 -69.33,15.23 -20.11,10.34 -36.42,24.48 -48.94,42.96 -12.5,18.49 -20.39,40.78 -23.65,67.42z"/>
  <polygon id="_7" class="fil14" points="10780.81,964.97 10965.14,964.97 10862.09,1449.47 11403.68,1449.47 11506.73,964.97 11689.43,964.97 11443.11,2123.19 11260.4,2123.19 11368.88,1612.59 10827.3,1612.59 10718.82,2123.19 10534.48,2123.19 "/>
  <path id="_8" class="fil14" d="M11919.45 2139.5c-132.68,0 -199.02,-70.15 -199.02,-210.44 0,-19.57 1.36,-40.24 4.07,-62.26 2.72,-22.29 6.8,-46.22 12.24,-72.04l112.56 -518.22 177.81 0 -104.4 481.78c-7.61,36.43 -11.42,68.78 -11.42,96.79 0,87.28 37.52,131.05 112.56,131.05 31.54,0 63.35,-7.07 95.43,-20.93 32.09,-13.86 63.62,-34.53 94.61,-61.99 31,-27.19 58.45,-60.35 82.38,-98.96l112.56 -527.73 179.44 0 -135.39 635.12c-1.09,5.43 -2.17,10.06 -3.26,13.59 -1.09,3.81 -1.64,7.34 -1.64,10.6 0,21.48 12.51,32.9 37.52,33.99l-30.99 153.34c-16.31,2.17 -30.45,4.08 -42.42,5.71 -11.96,1.64 -22.84,2.45 -32.62,2.45 -32.62,0 -58.18,-7.07 -76.68,-20.93 -18.49,-14.14 -27.73,-34.26 -27.73,-60.09 0,-5.43 0.55,-11.96 1.64,-20.12 1.09,-8.16 2.71,-18.49 4.89,-30.72 2.18,-12.51 4.9,-28.28 8.16,-47.85 -48.94,61.44 -105.48,108.2 -169.65,140.02 -64.16,31.81 -131.05,47.85 -200.64,47.85z"/>
  <path id="_9" class="fil14" d="M13074.4 2139.5c-65.25,0 -119.08,-15.5 -161.5,-46.76 -42.42,-31.26 -72.87,-72.32 -91.35,-122.89l-32.62 153.34 -158.24 0 252.85 -1190.84 179.45 0 -104.4 505.69c41.32,-52.74 89.72,-95.15 145.19,-126.96 55.46,-31.81 113.65,-47.58 174.55,-47.58 61.99,0 113.64,15.76 154.97,47.58 41.33,31.81 72.59,73.68 93.8,125.34 21.21,51.66 31.81,108.2 31.81,169.65 0,72.32 -13.33,140.29 -39.97,204.45 -26.64,64.16 -63.08,120.99 -109.3,170.48 -46.22,49.75 -98.15,88.36 -155.79,116.36 -57.63,28 -117.45,42.14 -179.44,42.14zm-9.79 -153.34c39.16,0 76.94,-9.52 113.37,-28.28 36.43,-18.76 69.06,-44.32 97.88,-76.94 28.82,-32.9 51.66,-69.87 68.51,-111.2 16.86,-41.06 25.29,-84.28 25.29,-129.41 0,-39.69 -7.07,-76.4 -21.21,-110.11 -14.14,-33.71 -34.26,-61.18 -60.36,-82.11 -26.09,-20.93 -58.73,-31.26 -97.87,-31.26 -32.62,0 -65.52,8.16 -98.7,24.73 -33.16,16.59 -63.89,38.61 -92.17,65.8 -28.28,27.46 -53.29,57.64 -75.04,90.81l-48.94 222.94c2.17,31 11.96,59 29.36,84.01 17.4,25.29 39.97,44.86 67.7,59.28 27.73,14.4 58.45,21.75 92.17,21.75z"/>
 </g>
</svg>
