<svg width="50" height="50" viewBox="0 0 50 50" fill="none" xmlns="http://www.w3.org/2000/svg">
<path d="M47.7131 13.549C47.1679 11.4961 45.5615 9.87924 43.5218 9.33054C39.8247 8.3335 25 8.3335 25 8.3335C25 8.3335 10.1753 8.3335 6.47821 9.33054C4.43854 9.87933 2.83212 11.4961 2.28689 13.549C1.29626 17.2701 1.29626 25.0338 1.29626 25.0338C1.29626 25.0338 1.29626 32.7976 2.28689 36.5186C2.83212 38.5716 4.43854 40.1211 6.47821 40.6698C10.1753 41.6668 25 41.6668 25 41.6668C25 41.6668 39.8246 41.6668 43.5218 40.6698C45.5615 40.1211 47.1679 38.5716 47.7131 36.5186C48.7037 32.7976 48.7037 25.0338 48.7037 25.0338C48.7037 25.0338 48.7037 17.2701 47.7131 13.549ZM20.1515 32.0827V17.985L32.542 25.034L20.1515 32.0827Z" fill="white"/>
</svg>
